<mxfile host="65bd71144e">
    <diagram id="9ZWF6O45C2S6bX0JdlQS" name="Page-1">
        <mxGraphModel dx="1726" dy="682" grid="1" gridSize="10" guides="1" tooltips="1" connect="1" arrows="1" fold="1" page="1" pageScale="1" pageWidth="1654" pageHeight="1169" math="0" shadow="0">
            <root>
                <mxCell id="0"/>
                <mxCell id="1" parent="0"/>
                <mxCell id="AipzV-qaQUW9Grrzpa5T-5" value="" style="rounded=0;whiteSpace=wrap;html=1;" parent="1" vertex="1">
                    <mxGeometry x="440" y="330" width="960" height="620" as="geometry"/>
                </mxCell>
                <mxCell id="AipzV-qaQUW9Grrzpa5T-24" style="edgeStyle=none;rounded=0;orthogonalLoop=1;jettySize=auto;html=1;fontSize=16;fontColor=none;entryX=0;entryY=0.5;entryDx=0;entryDy=0;" parent="1" source="AipzV-qaQUW9Grrzpa5T-1" edge="1">
                    <mxGeometry relative="1" as="geometry">
                        <mxPoint x="860.23" y="480" as="targetPoint"/>
                    </mxGeometry>
                </mxCell>
                <mxCell id="AipzV-qaQUW9Grrzpa5T-1" value="Telegrat (Syslog)" style="shape=image;verticalLabelPosition=bottom;labelBackgroundColor=#ffffff;verticalAlign=top;aspect=fixed;imageAspect=0;image=https://dashboard.snapcraft.io/site_media/appmedia/2020/07/tiger.png;fontSize=16;fontStyle=1" parent="1" vertex="1">
                    <mxGeometry x="610" y="360" width="120" height="120" as="geometry"/>
                </mxCell>
                <mxCell id="AipzV-qaQUW9Grrzpa5T-8" style="edgeStyle=orthogonalEdgeStyle;rounded=0;orthogonalLoop=1;jettySize=auto;html=1;" parent="1" source="AipzV-qaQUW9Grrzpa5T-3" target="AipzV-qaQUW9Grrzpa5T-1" edge="1">
                    <mxGeometry relative="1" as="geometry"/>
                </mxCell>
                <mxCell id="AipzV-qaQUW9Grrzpa5T-3" value="Switch / Router" style="points=[[0.015,0.015,0],[0.985,0.015,0],[0.985,0.985,0],[0.015,0.985,0],[0.25,0,0],[0.5,0,0],[0.75,0,0],[1,0.25,0],[1,0.5,0],[1,0.75,0],[0.75,1,0],[0.5,1,0],[0.25,1,0],[0,0.75,0],[0,0.5,0],[0,0.25,0]];verticalLabelPosition=bottom;html=1;verticalAlign=top;aspect=fixed;align=center;pointerEvents=1;shape=mxgraph.cisco19.rect;prIcon=l2_switch;fillColor=#d5e8d4;strokeColor=#82b366;fontSize=25;fontStyle=1" parent="1" vertex="1">
                    <mxGeometry x="139.67000000000002" y="360" width="120" height="120" as="geometry"/>
                </mxCell>
                <mxCell id="AipzV-qaQUW9Grrzpa5T-9" style="rounded=0;orthogonalLoop=1;jettySize=auto;html=1;entryX=0;entryY=0.5;entryDx=0;entryDy=0;exitX=1;exitY=0.75;exitDx=0;exitDy=0;" parent="1" source="AipzV-qaQUW9Grrzpa5T-49" target="AipzV-qaQUW9Grrzpa5T-6" edge="1">
                    <mxGeometry relative="1" as="geometry">
                        <mxPoint x="372.0000000000002" y="750" as="sourcePoint"/>
                    </mxGeometry>
                </mxCell>
                <mxCell id="AipzV-qaQUW9Grrzpa5T-6" value="Telegrat (Prometheus)" style="shape=image;verticalLabelPosition=bottom;labelBackgroundColor=#ffffff;verticalAlign=top;aspect=fixed;imageAspect=0;image=https://dashboard.snapcraft.io/site_media/appmedia/2020/07/tiger.png;fontSize=16;fontStyle=1" parent="1" vertex="1">
                    <mxGeometry x="610" y="750" width="120" height="120" as="geometry"/>
                </mxCell>
                <mxCell id="AipzV-qaQUW9Grrzpa5T-25" style="edgeStyle=none;rounded=0;orthogonalLoop=1;jettySize=auto;html=1;fontSize=16;fontColor=none;" parent="1" source="AipzV-qaQUW9Grrzpa5T-7" edge="1">
                    <mxGeometry relative="1" as="geometry">
                        <mxPoint x="860.23" y="513.5691164129" as="targetPoint"/>
                    </mxGeometry>
                </mxCell>
                <mxCell id="AipzV-qaQUW9Grrzpa5T-7" value="Telegrat (Influxdb)" style="shape=image;verticalLabelPosition=bottom;labelBackgroundColor=#ffffff;verticalAlign=top;aspect=fixed;imageAspect=0;image=https://dashboard.snapcraft.io/site_media/appmedia/2020/07/tiger.png;fontSize=16;fontStyle=1" parent="1" vertex="1">
                    <mxGeometry x="610" y="560" width="120" height="120" as="geometry"/>
                </mxCell>
                <mxCell id="AipzV-qaQUW9Grrzpa5T-10" style="rounded=0;orthogonalLoop=1;jettySize=auto;html=1;entryX=0;entryY=0.5;entryDx=0;entryDy=0;exitX=1;exitY=0.25;exitDx=0;exitDy=0;" parent="1" source="AipzV-qaQUW9Grrzpa5T-49" target="AipzV-qaQUW9Grrzpa5T-7" edge="1">
                    <mxGeometry relative="1" as="geometry">
                        <mxPoint x="372.0000000000002" y="660" as="sourcePoint"/>
                        <mxPoint x="560" y="620" as="targetPoint"/>
                    </mxGeometry>
                </mxCell>
                <mxCell id="AipzV-qaQUW9Grrzpa5T-11" value="6514/udp&lt;br&gt;6514/tcp" style="text;html=1;align=center;verticalAlign=middle;resizable=0;points=[];autosize=1;strokeColor=none;fontSize=16;fontStyle=1" parent="1" vertex="1">
                    <mxGeometry x="490" y="380" width="80" height="40" as="geometry"/>
                </mxCell>
                <mxCell id="AipzV-qaQUW9Grrzpa5T-12" value="6666/tcp" style="text;html=1;align=center;verticalAlign=middle;resizable=0;points=[];autosize=1;strokeColor=none;fontSize=16;fontStyle=1" parent="1" vertex="1">
                    <mxGeometry x="490" y="800" width="80" height="20" as="geometry"/>
                </mxCell>
                <mxCell id="AipzV-qaQUW9Grrzpa5T-13" value="4444/tcp" style="text;html=1;align=center;verticalAlign=middle;resizable=0;points=[];autosize=1;strokeColor=none;fontSize=16;fontStyle=1" parent="1" vertex="1">
                    <mxGeometry x="490" y="610" width="80" height="20" as="geometry"/>
                </mxCell>
                <mxCell id="AipzV-qaQUW9Grrzpa5T-14" value="Syslog" style="text;html=1;align=center;verticalAlign=middle;resizable=0;points=[];autosize=1;strokeColor=none;fontSize=16;fontStyle=1" parent="1" vertex="1">
                    <mxGeometry x="335" y="390" width="70" height="20" as="geometry"/>
                </mxCell>
                <mxCell id="AipzV-qaQUW9Grrzpa5T-15" value="Alerts&lt;br&gt;Perfmon" style="text;html=1;align=center;verticalAlign=middle;resizable=0;points=[];autosize=1;strokeColor=none;fontSize=16;fontStyle=1" parent="1" vertex="1">
                    <mxGeometry x="330" y="780" width="80" height="40" as="geometry"/>
                </mxCell>
                <mxCell id="AipzV-qaQUW9Grrzpa5T-16" value="Events" style="text;html=1;align=center;verticalAlign=middle;resizable=0;points=[];autosize=1;strokeColor=none;fontSize=16;fontStyle=1" parent="1" vertex="1">
                    <mxGeometry x="335" y="640" width="70" height="20" as="geometry"/>
                </mxCell>
                <mxCell id="AipzV-qaQUW9Grrzpa5T-27" style="edgeStyle=orthogonalEdgeStyle;rounded=0;orthogonalLoop=1;jettySize=auto;html=1;fontSize=16;fontColor=none;exitX=0;exitY=0.25;exitDx=0;exitDy=0;" parent="1" source="AipzV-qaQUW9Grrzpa5T-33" edge="1">
                    <mxGeometry relative="1" as="geometry">
                        <mxPoint x="1090" y="575" as="sourcePoint"/>
                        <mxPoint x="990" y="480" as="targetPoint"/>
                        <Array as="points">
                            <mxPoint x="1070" y="550"/>
                            <mxPoint x="1070" y="480"/>
                        </Array>
                    </mxGeometry>
                </mxCell>
                <mxCell id="AipzV-qaQUW9Grrzpa5T-23" value="" style="shape=image;aspect=fixed;image=data:image/png,iVBORw0KGgoAAAANSUhEUgAAAdEAAACCCAYAAAAZrvJ2AAAaHXpUWHRSYXcgcHJvZmlsZSB0eXBlIGV4aWYAAHjarZppkiQ5spz/4xQ8AjYDDMfBKsIb8Pj81DOrOd0zT4QUvq6uzKzIiHCHmZouQIT7v/7nC/+D/1psMVTr3kZrkf/qqCNPfvD489/8vqZYv6/ffyf9/pT+/njw/PuizEOF7+Xnn95+vqc/j/++4M/3NPnJ/vWN9u8v1t9/Merv+/s/3uj3wkV3pJ/P7xuN3zcq+ecX6fcN5s+yYhve/3UJ6/4u8fd9vzLwN+hL9b/f9r/9u1O9Y1yn5HxLKpGvudSfGyj6m0KZ/DC+r5SLJxk/p9K+r+P3zSjIf6pT/Je7Cv/syl8//aMrtf/nppT284zAA38vZvvr+398PNk/Hv99w/CV+F+uXPbvT/nvj7eR2j+X8+fve8fDe/dndbM2Stp+F/Vnid9PPHGxuPK9TDDu/DV+7t+fwR8PoHfT8hN3XPzZaaRMW16q6aSZXrrf9502t1jzzZ3vOW8apce89DzyLjHQm6o/6eVO905xmrlpb+HR/Ne9pO+647vcTs6FT+KZOfFmiVfkoC//HX/+yzd6T5BP6QNs/2rFfWUNBbehzukrz6Ih6f3BkX0F/vPnn/+pr4UO2ldmZ4Ezrp+3WJZ+sSUcla/RhSca339mLfXz+wbcENc2biYVOhAb4E8txZ5zT4k6Ov2ZvJEzNHnRgmSWD3eZaymN5jAxXJvX9PQ9N1v+eRjOohHGGHVaw3jRqwqxgZ9eHQxNK1bNrFk3t2GzlVabtdZ6E/nNXnrt1lvv3fvo04tXN2/e3YMPnyOPAjnaaKMPH2PMyUUn7zx59eQJc668yqrLVlt9+RprbuCz67bddt8e9tjz5FMOPHHa6cfPOPOmC5RuvXbb7dfvuPMBtVdeffba68/fePOvrqXw09Z/+/N/37X0p2v565Se2P/qGi/t/c9bJNGJqWd0LNdEx7s6AKCzehY91ZqDWqeexZGZCsvcpak5qAUdo4P1pmwv/dW7/9O5v/Ut1Pr/1bf8p3NBrfvv6FxQ6/6Lzv173/5D147UZscSvg5pDFXUWBg/nnBn48qtr72259NKnrmOWc1PXb3uUajX23emefzFuXsKddzsp/DosMxPFLbEtRCdR02P334o89tt3rH7YJ3lnJEs217M291+eVq/Ifmd+T7uhHfqp60429lekjeI7lX6Wc5bvNvpo+l5ra5Lhdo56+1BI3ln36HBumnM1866NPmO0lLbL+8xnTpds+3VRiwl3V2upT1uW1DoWiu92vyky4pLOG/eCZnbs7tOu21YPWs2UGb831nPrD8/S4sOLy03tgMKFuVaqwFAGhms5x7vjTibRPFo637L526HG6tcY1KSM+45e+U9kYHWKd8Fsm+2ts49AC/FkKdjGOYneUia0WZ7oOzQstkXQuD7UPmyy5mpPsA4Tn87z1X8PeQASIhqWRBgGMfKms9bApk8YXE9m3sPv3XT6igoMeW3G6h6PpkzChm9Vy2W3sCQ++SBAbm7+uZpz61vkPN85NdAcTtl7WG8mGXkuTUQXQbIz2Kdua/XigVuezI1p47OhPY3xsaPnDEN3ZoI3eAGwDdNTcv2AYG27dhTi3YFLYUbyCnQ4/qwZ6B133M7/GW7GEV/vttdl3anfFB02MBXtWst0srzcuqv0gnqtXYJk1cUnlOv78sPbc103oBK2mooR6Z8HaAyKj75n6o/qz8/yxj++R7+8QDY8H5Tbytfbgf4Gs5CZbk5neGegH1anfvY1gvrhRjqWDtYgihqpUOgdZbGMlXJhleW1ubOTD6q3wCJ0USKPLjZU/d6sddLvS3PcQLDfoBCqTS/DqpW25nzWbksqGocNzWnuoMJyn2kUratHakf1VU5uNIdL9T9vJe52jQo8PSGcznQQO7GhCXIMWN7gHvd3XZv+4DpUgW08+oozMteoDbYgLHj2btDJTzrxAW3ztE0vA+fxk+S4bwhS39YJFxFo2nOP+PmTXet8F+wlSFQStRw0KyhWOz3wRy3dqDpAzm2F4HNedjK7qvLZdHJZoBrwWcbzn+h7QRr6d16AdBYA+pnb47taNRZEJPTsgXUmLR3vZh3IW2gEkQXv6cX8VGus4vBMyN8bj15PcD7AwexX+RO1Dj/SA1sal7o7hoPWXPDcSQY1YkQg6tARnBjXqcAItdy71iQLPgBwpW15Eq5M0VPekN+9TJEtsW5BojR/tVQOMZoWp1ITO3on2gmalhrpTxM2PvEZzRKRNsjkqdlbYC0E/WEoVHaE1+l3PwDOE7K6zXT9PMK8GH1eTRwQuGhPTRsLZpXpW52aBjNeJCuhwurwTYPdUXuKEUXY3NLiGpazHNPthCYTkEAFboNmbW355pQM7P5EPNpENtEWt9+LxdawGVdKjMpVodlF5q49wLrfZfhgqJDoatwl5ToyVIwCxpa4zG6UVs5EdHePrnxxZ0ZcPUMAd6H0R4STsw+yEWQmRXKfjAdF1yljv9U8EOrwXTaJeWHbCSan+DHiWm3yA9DGGcIF0sdSGJU30aDWq9NdLvVVF4YjsYMW/FAiPSSSRZjwtiDGaNACOhSGaC88XgYJLFMbM+eAIgC7M8WhXwdmwXVLYPZ50EheWjMtR+2amSuOt5Ir93SJ5DrUgBgeyDda9wzpJlZdJh2FHRpHDZqXN4ORYYNtqVbrAHJAxZXQSQSdNCufXTFGB/m3LOc9e7xhNoSDot5PXMw9zglyIgxduj4sK71BEog0PxBbevOmF+2kauv3IEzIoHGkEUYLagHgzBHB+U9ocGUNzEMq7Zt9cmKEqmQnfKBHESgOe/mbEs66ohxChQCP4lwKvftiwPJcJIZfIgg8w9HK9CpHiXjMKmzFrEFLhIKqZcw3wmDASvkCEcUvKM1v5eewRxcbzYGskwXPaWO+YqmxkO9B55b8DXzV7CUD6IJuQHDXoEjYKAV/m5CXxc1w1P1bB2GI1XCTZg/A4tgl/hayyvztmc43tvmQtfuGJAVFT34O8sXKyRVSYtUg2coGLDzuseM/B7UsDQUJzpmuuANMvYFpq6oyHwKAazb5W9wiZsRhf5oDPaehW3GmStQ74FkQrKsgpWa7MGQI6eODesHeF23SfaCe7BTmFH6t3g0Ui6kwxnRdrE8yGFERwl2A3bvLJPCFlT+xPAwd2sRquclg7074KWRKCJTXqkM4gJesUCtQgnQEq4uYe/xkYzplsEFR/cFGBOmBbo4Ptw/WlLeyAb2uMS7SAXTh26A6E0Zv+V+vXOkViwA2g4aFnZB61jwPrLQkDIGH+sHS2JZEk9vfWK4mVbId+HHcNMUn/jA1YwMQVo5hTuC93ZD9Qr0QV1XFPkhlKCkgCHiA66kJiIEhAbJAjZ8MfYq4W066ktJMDklaDUsDNCclXA71AB7tXmTZQP/119P123Cohh5WvlN/cKsQcAy2SwXr4fzb6fljwDBJLbcgPTJ96zaKQFpZTxMWMZm8guHigbUDRHgVkgHQ2EDw2s9YIa5Nvp4WAtyxS8PrTDmknmKsIfrivDLgbRhe0IZ7rAmljDgcWq2UvIRRPMQY2eeL/pRIXZ6DH+StaA6KPtixKHEeWK0qgklIdIP7kIZgEUXpmwGugXJNpxAgehI/rQV6ob6EZQfXwB8btp3iSZPrN8zIJu7DyTFEkVLJWxSGEVXzzBoUx56MQznZiom/Ax6OiI3iRfk9kBp5NmUEFKHgqV7EEAM6jPhgS6lxKpgRO0MlYt1liDsQVNs4yc/CgH7HdCjUEgypnVTKyCBkwmFTsKj6CtzWjKXx+kxa6QuRP9NYSeVTr9QO4aagsPQcj2PeeWNIkmb6BWKKB+wcbWB5AFqKYrzJ3+moH1Lk3dr13837ZJ2M1EeppUUR88Z1kBEm7B20ZZNKkviXtFeB1VUgfyKhwPX2laJR5tw5L+Ff/vcEvZdW5e+dg8N+yw6M1l10Ne7dFCEmmbCKz2i3IV7Rz3af2uHKEApSI5OlEz3UfaOwQtYrMdoce8HCGOI4GsoEkuOEeDO2oiMf7lyxE+wxPweNAi+IbMuOUDiXKyhwSLYghs7g015oTugyZgc+0jbSF5YxugpJYI4JBVRO3CVtC3Q5d1yBN1hliuDKJ8L8+x5N7yF6QDnzJ2xRHwbXIRVKn0NEizX4eWwcT+mFy3EKuZQQX3ejZejxzidx5yQGa7mfhMYubeOAaPfU6WBKDCMRR4NC9u+NI9ktBKeJyw32EGcMjRK4Mb4n4W84+tYDkTPtEMwcgdUhmbhbmCGBhHRjgwiSSyhw/u143lwh/1Lp120RrrCQicx7cgL2RBIQSfyCXlKPuFUbFi+zDcP0jVIi04QgBDVtrmckg/GF5RRRmaMbJW1Y8qoY5WBTEFMcNA0kb8Y+pgbnN2RUVaJvaPID6OMGUHb5EioKHzMWq8M3pCzWaR4pl37+0UGnJ7iRIzgGPJY34YGNrmLzKAScTh+G8DkxyTqt96Ar3MrMAtytgeBCnSkrGaW1LsFDA6ah5QCXxw4Qm8Xb3KE06KN4892DuzAAH3aehmQPzN1Z023ygWQJPsMQ00WD6KYdBfbbDOP8vL28yhILA74C7OZoBhGf3bSRaEhqNEBq9A0BucEuIv2ZWY+iokzIasQlBnRTpSjQ8Cwm4YDnhpcnBfiR8gflVx0aCl2hQWGjX6Wg6Xc4wmrmE4so29mnAgYB+4dQgCtiEqsol5CXUciEwhw1ib9nt7DBZ3alUGp8WL4B3IeccHwDBRtUnIsA0Di4uTjVaf4lEzUlflICiiqHM9FabssD6vLwKN1zAz2784OF/OuU8CZAKjrLfoqwH4TgNDe7kRxP7CJdh/DjNReuui45rgU89dSAAFt53YkG04SSSXwC+kKU/eLvFh995mgZyLkCY5e+ns6lEBxaCe5D4QfXA/esTcmB1KwBWPVMwsk9QQ8LDv8m7SrBFPgQgOxnjBA3gfFSTGWkWYGKQJDSPp5EVONoexOl6qDUFLQYHAkTlGbQaZzqhcOwnOhWrIlCJYUcVeXdEXjBGv8Inw1kA4uSyQ+3AnuE2FOIs3OeIDM94IOuLwTQ3CoLPwyzkbfFVB31XYR4RVE4jfQ6GZflToOErrFHcpY4DFYb3gAJkmUozJAI1/lSeh4iuzAANsFAW3tdUG+VXAqCQbR3FxkdUA6WZQbDDfCIBamm+42gYeIiRpCP4/YS5jCneA6oV35GFPOxsqrxpYQNCgQb9sDN9RFJZE4D7P5vsgb1wN073OTzrvIKWuPFZrSXhVBiJnX/gZ5HF2d8FVo35bXdHApMzi4CsHv8KYNIcuR8IQOMU9JWycNt6dn4EN4munc6ag16QZFTwT4frHgZ1eg7Nypukh/AKmmvcUds7IH3QdcOFPtGbqGjsq7NgpD1L5lkggi0by8yh6QEORJ7YPC4pdAF8+NmqCs8FiWN3qHLIaCr9d8tcAlkVdyrxWKVS0qExqrx6cVCKNzC0xwl6wym1cT1+Y1F18rm0HNaF8MBDpABIS1K610xteHd0bdqCqLn7RJRxkH9iH9m8Y3PXmwSVXeWFDYnjEwjDKfjLhUIiFMB4nEK8THnQ2iBbEUkyhGws/CDVikIs7ExCCavCqJ+oK23gqNpTj4meTlM7HaS2VmWc+MGDfSOXPMzaBMid92Lt5kFQGBdJM+I5C8IFGVqWYs8UBt316RjgZ4mDhIMempPCzhBwekfVyku+WNJ/CrNGcB4Yg0AlnjLRlaAADpYsq4FUoDMd5LbxA2HXd2zJqqOlG0T6boLjekbR8szFIc8JYRL2yCrPKYpkNjAjHWhaG8MIF6xWSVdCNwJCgxZLbjIpsPvgS0fWFmDiNPOSMYwYeT0gYcT6RZRn4Ho2gUvoNkLm50E0CnMXmQEnIO9IOAD8FmgguExez2qowC+FBIyFijJ2YirfGyg0gQnA2zjC1gkD12uZXqOvHrimaMqcefnWBwyUxjqkitLBxZpk8biQU69AhgIqk6UkRXG44rT+1owY2PgIoL1J5wBX8yaG9rdyoVekbwJeWBxPwFy9j82+zsZAf6D8nqzYlZKB0WS4mVGYtX6/82HxATBddGWpD9eUVbugLNPVj5Sw0pfwKUo01MUcZEYCw2yEM0M0EDchcdMRqF2UXqmSp8JkTA/Q4NDGgp8gsNpyu+hgFXXaRsfpexB85EHXHG1I5le0MtxoBsx2Xi46kBiYyJwv8Bh3IUlyhpw3ESCpXXIPCHF++R9LRJqnGBdcqZJlmQtNaQQZiymLt9Z+1CPRcg1GjrGvsDLAOyZPyIAmI+EApcMcEOuV9bx+Nls1x4l1Ck/R0sCLIIgLFHsAGpGKgjf7eEYZQxy6UYXK+rRZ0gEBHRYJ1DYXsgx0zJKRHW4MJ+xtw1uA4kK3NrKyoIRZgrJveijrgd+PzjNcSdhPqRHQHsY05WHXXgBTZqk+tcKuhkRFoPFLxv+ZBx6rw62YJQDYdGSZ8RhTSqCHj0ip5JPL79FR1b4JYn4FxNsSbQmkZOp23E2Fu8kMwGWGDGdei6qCMeF3ryIVcoUdTOcmtR2x0EZPOOWgxohFyKIkk/nvJF1mcXMFG4Y51/NRkxbF9XGJfA6SADy5zlCIrCecIANQ9go4lYK1fMgiL5siv/9Q+9uym9xDoHQlS/nXcQRjTMiyLScRQZYzpb2ICm4Aqwf0sllsF1mLfozACbhZWB0hXpYF7t+2BMUq5FGUqnl0x3gbtnqI6btsoalKxmfJ9BFLDKINuwehgWijY8HOtpZbrUSS7jx2QLhrBFYLggG23Rb43dvgNj7zjo7GMwFzg1Q3CWpQa7ZJ28nckN+hpTV9saqJUhNiA4UblXapcz21E71VSfUL7k+/KMWNj2YdJ1TFjlrbA+eILf0A1PlnChtOhXOxxLx8+n90agXwdvpgPQ1EjWm+aRUk0LJXzAJgqhA4JGeeFkLh2UcUm8V6dXaAkmDRdyizY7AScjZoPA2eslQnYZfh2N0Isp/TWCYJr1vnbDObQV5oHUABz/OCAdyBLPZScKCRqvhmNOXYe0T/ujDb4nLWpvAeLb14YPcr+ODSE2RA4jV5iphX1p2iaakzvBNXVCKaNeeZSVHZr47sEayW+Rm8HaWgF7+x2vd+mD9W+HAb5CsdOX1CYOhwQQxxdTHUwjiBmX9e3AMAXFYl12ySLJx9aGPxLPXMzeEHoSRMxczr6ttIxT0dGo48JXat85HRz0MCPaJ1NzCX5mp0YJGWPAM7d2bQG1LBGznww/ggrDRrCS/iGHL6+BbZ3cE9VD0u8LDog/Gn0pUY3S8LgAWWGuMTd+tjZTEOEj4H3E93SEjoHA/k/dMokkekBnC6o/9KGk3DFZdOaS7uirJTqcTXuFUD2Sg7AqdqS7rcFvREpY/3xn8psIkXwdZ0Bwq6g2q6mIRlKCzkqUpadXmdlRqqHeDz8Ik4JdfOF3Cj61DR9J2QCu44qWNlv1OYrJ15In+QVvU4f27+9jtod4FuZjNdiaJ1NNiCajCVUWdMSgOkKCX+d1DkE1CeyoEVF/6miImae2GGF8LwxctNkwqnauUyqryqAEngyjQaiYIZgAFw4l5XSy9jhcI4eFQ88gTABJ/AVzCJBOa5lyQZvvTRECbRk6jWelU0e5a6GnOhLX1p8yQDa8lw4RnvZgXySlH5hap+/ny1LdEJDgjvHLJw2k5oK6riyJmiU4KOlzBNoALTrlgwNQm/NZvs3dpoSg4YeHzm/0ARSsKS/XJyb6d+h9sYBtWtSHXXSu/qp8MtRPfpPCNdmRAz0AJ0BSdjMIIEzt0RTcIHZMW5KwY1Sgx/IRy/UBkvw5h2+DDdQgl4CeXEaT0VwcBEmB2wuCfx4VWpJ4yOlCaIgbdhnoThIAYstY9kjsugfgkhCNnJH16Q+wRFYrxPgAUpFILCvQwiZ10yd5tKWjT4ihHkoiWhLWchUJJImoFSAyYJFRTRmF8XmhRkwVACEznlaki4vYNiXi7el4u+eUvg+QalQXCfZ2QqsORZD2/CLimJqfoOXieZtUWV78yOKNWkio2s7iZ7WDmA85+mQ1wENRRZ+awOIvVIrAsXeYpv09BGUUQ7yJBzgJHqR/N8smAUhqR4fHt9OtQxXd4swk0IsEyH+zOKLo8M+hsEJHS0l2g0bIWeoE72HYnthQn9EhZiYdsUEMRV23IXkyfebhBlJXs6FdvjhEmsj6fR/hVhHGUje5O8zi3JANhJWyTsji0G550/YMs629ERId3jKCx6d9m3mqzppdp4uIQNeHXhBq7H1H2S4OmSrHz4ZGTEIHbxizWRlaQ5ng864TXX0YE2NVNV74oNewl7WSIHANuukmu16lgxtJBq+RgTeshYcCpaOYY00MzyOE0nt9RCaJ/fFKlUiGNHyAxWTuVh5+BFpABJkacuQybE4ODDjaiFHVIcTVJHX0b+rjGTmSH24liqaLmXXuE+6ZDaNTS07RIVZuH7jBduGazmYWdtG0Z9tx30k5Bo+6v9NT3LqMIJFGW1ERFmiGC4DyyYParSdtYTdCWe/7HID2FOowYqJEHLaEAw6sStDj3ePj6o5Ha6VIcmPZAJ0UidvPR0ftGK2DFsDouExtLmJesgGFNZEJbd4c7S9q8qP29BifjX5KrqA1qoBPUwk94OgxmtQGk6heaBsI/9pUHh1PaW8Fml8wf3KXE9XWC3MMPjtY39oiFI1oX7JoJ3c7tNNo4izKwTqj6+RZ12Y8PAmrQW8ESfzi0RZ2gxpXo/1xA9IZkJShc86FU9x/Pil2+/K/Pin2z++20iTTgUysJk6lYdlzCtBdZtlu2lZhmLRdoc+MTH0MKsrn2Bn6JN3A41bDuxG2FS/tXIb2YRqEsxYggXgGsHOdCEPfjEPeIpSkHWimrBfdjD7cSECcqJHOi7M+CeemTyvo+Mhz+PnICjHh3z/k9P/0PfzbL54+jRZj+N+Zk76KamKitwAAAYRpQ0NQSUNDIHByb2ZpbGUAAHicfZE9SMNAHMVfU6VVWhzsIOKQoTpZECviKFUsgoXSVmjVweTSL2hiSFJcHAXXgoMfi1UHF2ddHVwFQfADxM3NSdFFSvxfUmgR48FxP97de9y9A4RmjalmzwSgapaRSSbEfGFFDLyiD0GEEUJcYqaeyi7k4Dm+7uHj612MZ3mf+3OElaLJAJ9IPMt0wyJeJ57etHTO+8QRVpEU4nPicYMuSPzIddnlN85lhwWeGTFymTniCLFY7mK5i1nFUImniKOKqlG+kHdZ4bzFWa3VWfue/IWhorac5TrNESSxiBTSECGjjipqsBCjVSPFRIb2Ex7+YcefJpdMrioYOeaxARWS4wf/g9/dmqX4pJsUSgC9L7b9MQoEdoFWw7a/j227dQL4n4ErrePfaAIzn6Q3Olr0CBjYBi6uO5q8B1zuAENPumRIjuSnKZRKwPsZfVMBGLwF+lfd3tr7OH0ActTV0g1wcAiMlSl7zePdwe7e/j3T7u8HdORyqGig9WEAAA0YaVRYdFhNTDpjb20uYWRvYmUueG1wAAAAAAA8P3hwYWNrZXQgYmVnaW49Iu+7vyIgaWQ9Ilc1TTBNcENlaGlIenJlU3pOVGN6a2M5ZCI/Pgo8eDp4bXBtZXRhIHhtbG5zOng9ImFkb2JlOm5zOm1ldGEvIiB4OnhtcHRrPSJYTVAgQ29yZSA0LjQuMC1FeGl2MiI+CiA8cmRmOlJERiB4bWxuczpyZGY9Imh0dHA6Ly93d3cudzMub3JnLzE5OTkvMDIvMjItcmRmLXN5bnRheC1ucyMiPgogIDxyZGY6RGVzY3JpcHRpb24gcmRmOmFib3V0PSIiCiAgICB4bWxuczp4bXBNTT0iaHR0cDovL25zLmFkb2JlLmNvbS94YXAvMS4wL21tLyIKICAgIHhtbG5zOnN0RXZ0PSJodHRwOi8vbnMuYWRvYmUuY29tL3hhcC8xLjAvc1R5cGUvUmVzb3VyY2VFdmVudCMiCiAgICB4bWxuczpkYz0iaHR0cDovL3B1cmwub3JnL2RjL2VsZW1lbnRzLzEuMS8iCiAgICB4bWxuczpHSU1QPSJodHRwOi8vd3d3LmdpbXAub3JnL3htcC8iCiAgICB4bWxuczp0aWZmPSJodHRwOi8vbnMuYWRvYmUuY29tL3RpZmYvMS4wLyIKICAgIHhtbG5zOnhtcD0iaHR0cDovL25zLmFkb2JlLmNvbS94YXAvMS4wLyIKICAgeG1wTU06RG9jdW1lbnRJRD0iZ2ltcDpkb2NpZDpnaW1wOmUwYThhNGZhLWU2NTUtNDk0NC05Y2Q4LTRhZDc4MGRlYWRjMSIKICAgeG1wTU06SW5zdGFuY2VJRD0ieG1wLmlpZDpjNTYzNDA4NS00ZjNhLTRjNzQtYWU5ZS1iNGM1ODk1ZTA3MzciCiAgIHhtcE1NOk9yaWdpbmFsRG9jdW1lbnRJRD0ieG1wLmRpZDowNTdmYmVhOS00NTcxLTRkZjMtYmUzYS01Y2ZmMGI4ODk0MGYiCiAgIGRjOkZvcm1hdD0iaW1hZ2UvcG5nIgogICBHSU1QOkFQST0iMi4wIgogICBHSU1QOlBsYXRmb3JtPSJXaW5kb3dzIgogICBHSU1QOlRpbWVTdGFtcD0iMTYzMTEwNjk3OTkzOTYwNiIKICAgR0lNUDpWZXJzaW9uPSIyLjEwLjI0IgogICB0aWZmOk9yaWVudGF0aW9uPSIxIgogICB4bXA6Q3JlYXRvclRvb2w9IkdJTVAgMi4xMCI+CiAgIDx4bXBNTTpIaXN0b3J5PgogICAgPHJkZjpTZXE+CiAgICAgPHJkZjpsaQogICAgICBzdEV2dDphY3Rpb249InNhdmVkIgogICAgICBzdEV2dDpjaGFuZ2VkPSIvIgogICAgICBzdEV2dDppbnN0YW5jZUlEPSJ4bXAuaWlkOmE0YzZjY2Y2LTQ1ZWYtNDViNi04YzBlLTJiMDc0ODg5OWUxNCIKICAgICAgc3RFdnQ6c29mdHdhcmVBZ2VudD0iR2ltcCAyLjEwIChXaW5kb3dzKSIKICAgICAgc3RFdnQ6d2hlbj0iMjAyMS0wOS0wOFQxNToxNjoxOSIvPgogICAgPC9yZGY6U2VxPgogICA8L3htcE1NOkhpc3Rvcnk+CiAgPC9yZGY6RGVzY3JpcHRpb24+CiA8L3JkZjpSREY+CjwveDp4bXBtZXRhPgogICAgICAgICAgICAgICAgICAgICAgICAgICAgICAgICAgICAgICAgICAgICAgICAgICAgICAgICAgICAgICAgICAgICAgICAgICAgICAgICAgICAgICAgICAgICAgICAgICAgCiAgICAgICAgICAgICAgICAgICAgICAgICAgICAgICAgICAgICAgICAgICAgICAgICAgICAgICAgICAgICAgICAgICAgICAgICAgICAgICAgICAgICAgICAgICAgICAgICAgICAKICAgICAgICAgICAgICAgICAgICAgICAgICAgICAgICAgICAgICAgICAgICAgICAgICAgICAgICAgICAgICAgICAgICAgICAgICAgICAgICAgICAgICAgICAgICAgICAgICAgIAogICAgICAgICAgICAgICAgICAgICAgICAgICAgICAgICAgICAgICAgICAgICAgICAgICAgICAgICAgICAgICAgICAgICAgICAgICAgICAgICAgICAgICAgICAgICAgICAgICAgCiAgICAgICAgICAgICAgICAgICAgICAgICAgICAgICAgICAgICAgICAgICAgICAgICAgICAgICAgICAgICAgICAgICAgICAgICAgICAgICAgICAgICAgICAgICAgICAgICAgICAKICAgICAgICAgICAgICAgICAgICAgICAgICAgICAgICAgICAgICAgICAgICAgICAgICAgICAgICAgICAgICAgICAgICAgICAgICAgICAgICAgICAgICAgICAgICAgICAgICAgIAogICAgICAgICAgICAgICAgICAgICAgICAgICAgICAgICAgICAgICAgICAgICAgICAgICAgICAgICAgICAgICAgICAgICAgICAgICAgICAgICAgICAgICAgICAgICAgICAgICAgCiAgICAgICAgICAgICAgICAgICAgICAgICAgICAgICAgICAgICAgICAgICAgICAgICAgICAgICAgICAgICAgICAgICAgICAgICAgICAgICAgICAgICAgICAgICAgICAgICAgICAKICAgICAgICAgICAgICAgICAgICAgICAgICAgICAgICAgICAgICAgICAgICAgICAgICAgICAgICAgICAgICAgICAgICAgICAgICAgICAgICAgICAgICAgICAgICAgICAgICAgIAogICAgICAgICAgICAgICAgICAgICAgICAgICAgICAgICAgICAgICAgICAgICAgICAgICAgICAgICAgICAgICAgICAgICAgICAgICAgICAgICAgICAgICAgICAgICAgICAgICAgCiAgICAgICAgICAgICAgICAgICAgICAgICAgICAgICAgICAgICAgICAgICAgICAgICAgICAgICAgICAgICAgICAgICAgICAgICAgICAgICAgICAgICAgICAgICAgICAgICAgICAKICAgICAgICAgICAgICAgICAgICAgICAgICAgICAgICAgICAgICAgICAgICAgICAgICAgICAgICAgICAgICAgICAgICAgICAgICAgICAgICAgICAgICAgICAgICAgICAgICAgIAogICAgICAgICAgICAgICAgICAgICAgICAgICAgICAgICAgICAgICAgICAgICAgICAgICAgICAgICAgICAgICAgICAgICAgICAgICAgICAgICAgICAgICAgICAgICAgICAgICAgCiAgICAgICAgICAgICAgICAgICAgICAgICAgICAgICAgICAgICAgICAgICAgICAgICAgICAgICAgICAgICAgICAgICAgICAgICAgICAgICAgICAgICAgICAgICAgICAgICAgICAKICAgICAgICAgICAgICAgICAgICAgICAgICAgICAgICAgICAgICAgICAgICAgICAgICAgICAgICAgICAgICAgICAgICAgICAgICAgICAgICAgICAgICAgICAgICAgICAgICAgIAogICAgICAgICAgICAgICAgICAgICAgICAgICAgICAgICAgICAgICAgICAgICAgICAgICAgICAgICAgICAgICAgICAgICAgICAgICAgICAgICAgICAgICAgICAgICAgICAgICAgCiAgICAgICAgICAgICAgICAgICAgICAgICAgICAgICAgICAgICAgICAgICAgICAgICAgICAgICAgICAgICAgICAgICAgICAgICAgICAgICAgICAgICAgICAgICAgICAgICAgICAKICAgICAgICAgICAgICAgICAgICAgICAgICAgICAgICAgICAgICAgICAgICAgICAgICAgICAgICAgICAgICAgICAgICAgICAgICAgICAgICAgICAgICAgICAgICAgICAgICAgIAogICAgICAgICAgICAgICAgICAgICAgICAgICAgICAgICAgICAgICAgICAgICAgICAgICAgICAgICAgICAgICAgICAgICAgICAgICAgICAgICAgICAgICAgICAgICAgICAgICAgCiAgICAgICAgICAgICAgICAgICAgICAgICAgICAgICAgICAgICAgICAgICAgICAgICAgICAgICAgICAgICAgICAgICAgICAgICAgICAgICAgICAgICAgICAgICAgICAgICAgICAKICAgICAgICAgICAgICAgICAgICAgICAgICAgCjw/eHBhY2tldCBlbmQ9InciPz6Fy6f4AAAABmJLR0QAdAB0AKx5idI/AAAACXBIWXMAAAsTAAALEwEAmpwYAAAAB3RJTUUH5QkIDRAThF2q0wAAIABJREFUeNrtfXmUVdWV/rfPfUO9Gqgq5hl8lExVBdoQGcQIghOKikbUOCSalbbbjjGddEynp5BOZ7AzmF86rsQkxlYJahlj0kGigoKICKaIYRQEmWRUqKKoeq/edM/+/fEKBWSoOvveV68e51uLuFbg3nfumb6z99n724CFhYWFhYWFhYWFhYWFhYWFhYWFhYWFhYWFhYWFhYWFhYWFhYWFhYWFhYWFhYWFhYWFRaeCbBdYeInqOg5lwvGeaeYexBRiVhEwFWnWzY7DGa2cFtacbC0u+uDA5RSzPWZhYWFJ1CfcWMfOltjhQUTBYaR0lBlREBW/dUfZfXboOh9VzyWGsctTQJjE4FEEDAfQ9+jf82lmG2f/JwbCXgDvA9gD8FYmtYWZN4eDmS3vzOp20LhxSzgwOJYcjAyiUIhCI8qEKIBhLuvr9l5X/J4dQYuzCsu5fyCAKGtEoaDdiTQvJ79bz8VIYRgUoiBEQRgGjeWYSE8VQrcGOrsBUx/lohg39YcTiLrMUWKOskIUTNF3482jlXIigP5oR2b+k10NnYdRz8b6paH+Fowb2dXVRxmRTI5jhBIA57b9AUBZniVCKhPE0OdaGwh4i5nqCXq1y2r1rhuKth19PFrH5W44HoWmKBSizDQM3LZQjyQGAwiC2hj7o/bF9v41sseOpEXBYQOHihowMBNAlBlRIh1lpux6AIYDXMYMMAHQ/AsA3pHoa1yJII7+Vva/uu2/LobCgTruBE14vVC6PeckemMdO9tiLY8BXAVCtBnNvUAKYJ3d7+gjM+UUpvN6u1o6weqsa+7FTuBbaeY7AQ7l6Ge7MzAdxNMZBEWMIc+1NoBoF8CDXCR6gBU+JMr2+FYIGzCXtB1Riy6Nei4PJHEvQw8joixxNfGAjAM6uhaYT7MYSMn20VU8CcDXgTbSBCLH/T2fYS0qrLMkaojtzc1VULjV9HlmtiSaawJ9Jn4jCL8g5oo8aE53gLsbP82Fs3gtzl4E0vgEwN8iMruR04y1wiZcBWCW4bNJEDYXylionP+iQzWSxzUF7CaYUwKNfRuEOgAVhfA9BLLzx6Lrz2MXtbJ9WOjRI9Hvv43xlLaWqLEloGsF8UxucaR4k11CucG5z8S/z+B/KqjNh9iSqEWXhyZdQ+b76F5MoEOyfVxEogW1BnNuiTJRtfnhB1vfmEOtdgnlwAKta7kdBUagAJAMZCyJWnT9wyDImMSYhCS2nMsADLUk2kkkCkaN+aP2PisXGPlk61Ai+lkBftre/TPLPrAjbNGlwaxAGG1MwFrojQmhFrL0yLWFNBw5JdGqn3AYhCpzEiUbVJQDuI7+OYCSwtt8bGS3RddH+A1Ewebrk6DWCdeR9D7WkqgpKstio8Dm97CKrCXqN4Y9E58MwuWF+XW01o6wRdc/C8pIzJV69GRBRYcwnvZZEjUefVcUmeva9Bb/JwTzvxbqtxHZ+WPR9aG1iMRcALLgTJkluqbg9swc72LVgqdbh0fK3rVLyEcr9Mn4oMK1QgFXu2vsKFt0/dMgG5MYAVswWRycaW4MFaA3MbcpLoSaUwgRtefhjc/MIdeuIB9PVA7fAcARvqaFwM+A6E+k3Y2pIndvsqE8Fe7eFAKAomRRZYbhKNK9XcW9wOgLqN4EDGJwlIBhAAZ60I4TkQlWlNj0KIuuz6FArek2Ko7MXckDAVixk84iUS2KzLWuOL/BhOskIXcMLFPArVtvKNl9kr8+WrGlse2/W071nuo6DrUGkkNd0rVENAaaakE8Bll5MbMmErbsmEYJO8oWXRpLuAhgSXCmlMTGCE8ABReXkDMSrX7o/VIChpieoJSNrPQV58xv6UPAOMHqWJ8IFV25dxbFpW3ZMIdSAN5p+/Ps0f9/6HOt+wH0MXytDSqy6PIIFmE0tLmXhnSnBhVphLGx0MYkZ3ei4eJwDQS5Rays0oyfcII0UTI+mujLXhDoKUn+Dy19BAQKsocwi0KAUO7PlbtTJb+/FWMLr4ZwzkjUAQsHP2g3QT8nAtFEweM7t88OL/azfcQB0fzRNr3FogBA0JIMhxgmY7uwARJ3bkGuwZy5czWo2tDMOcSEdWvuKLY1IH0Es55kbojyEhCxn+1ztR5jWrECABzNlkQtCoBFSXKY3AASlAGs5yBcjDDfZAozzz9nJEqnD4tOANgGwgbS2MZE25hom1K0YfXtJfvsyvEZdewA8XGChf0X/+ePqPpP847rinbagbbo6tBArflRUngllsJIOAgJFrElUSGGtxHlRjA2MNE2h2gb3My2P99Zvt1vS8bi1KhSLSPBqlRAcb672oloDJvnR62188uiy2MFdyfm/sYUSkK5P8fK/XUqidbfWT74lH95l10fnQnFTq2AoADKbPDbUmYkRgneYIPSLAphsxaRmCKs05IXMGoFsvMxjBPex+br/mmnpoWWBH0RDr57fdn7frbvnHCyCkCx+QncFuK26PogmdwfMhlxIW5JUNE60X2sJVGLvF6csgTqDb43kLXMjaRtepRFQbCoZB0cwIUkPexKDtsFG9hnSdQCJFgcnAMSZYgiEuFwwpKoRSGsVMk6kK2Bt7gCWTlO00VcsGvQkuhZjqp5h7oxMNh4AmnOgSVKY8zXLnbtmF152I60RZcGMwEwLuBB8shcWSFusiRqUaBwghFhlXqVAxkvUdUKa4VadHkUrcQQAN3Mz6HiQtxjhM8XrFhOwE7PsxtaqCQF9jcyt8+LXIJ44hx7Arbo8ljE5ZEIypkRYA1HK3QjhaSTQVNrGE2YSEdOvcxQKzF5lIv1khJYilAtiAragwl0yPjpNVyCBHrDQRgZlECjCUADJlODJdFjUPubw5XBNKLEThTgYawQBXPUhbpvzWfL/Nuo57KqHnYkqkA1lK13WstEq9bdWvqg9NU1T8YHgd1JzKgFURWAcwH0ZUJZ26kyCeADIhwAaBVc/r9kZcnSrTMpmat+J4UaQXLLYeUEy4Y/myjr6IMJAC6lmvZc3+20i6s43lrNIOPtIxeauVULORyn5FDNiCpGlBnDCIhq4LX9Vxf9MNdrqffilj5ww8OgdVSTihJ4GIAog6IE/Y8fXBGu8+q3ei7nsnQsPZwUqhXTOCaMY6CKEBjReCk1nVUkWcdOsB9qAuRWM6iamUYR9CAG9QXQG9AhfXSxOVk3IDPgOkAoA2C5qwE0ArQbwLtQ/C6g3iKFejeDGoG7SKfDstgFZowxFzRrZ1BRPRcjgwlQuBAaNSCMBDAMCWRz2F1kfWZH5fdXMQPYD2ANGMvA+D0m0dsFTaInEGWUCFENjhIoijSiWbcDH+14AMRFgdR7Xv3+2MfiA+DoagC1YFQzdC3QMhpQxSdsvLuMSHN+Sx8GriDGlUyYwqwHAHQ6Z2kYwEBmDAR4HBTuCTbF3hv1VPP9b99c9pTkW0fWtXyWmX509Lf51BO8RODMrXBZv9tm8Z3k1R+zCj+EAyBAzj0AfnZ6S5lqJeXZXFaeRAUOXsCVaaSjKlvzNMqaoyBEQYjGdXIIAEed8JlE+JMvC6meg332JwchgChYRUEcBSMKIKoJ53IG3QANEIGOGwWGq80PFRV/ah3qBNRYZjUWhDEEPk+3pqNKZT+Z6aPvZ0p/BsBP/NpLyl5Ofw9Ef3uyucWn9koc83d8EBz4ZGwa7Ze0o/R17q21/pSraQaRngpGJbc1Jtv3HZq9CkCPtj9js9egDHYBIkElZuBdjBcUh2AmvOlTIe4/cxQa1wG4Gi6mgBDsQLcRgH4A+oFwBQjfwSp+FYRv4AJ6tWBIdPyjTd9g4FYChiBFIT5mmmf7ik7XQztW3dbjiOT3z3u8+b9AuIiBWsCtPHYqnrjFHDNrUu19f/XjrYMpkL4JrOaAMY7otJ/UHgwC05Ojnmq5tk+fktuXTqOM4cnxfACV+Xxwdzmw9IyrhHjMh7tzx5EqT4U27zZ8uP+C+GTF6qcMRF1OlqtjN+kzHU4AEGnPreDeC5P/gQ9S32CHVPbHGR3YXpMNvUNb2m1lvpCexoqvAzCWgbEAKpiPX7+nnoD0D2D+Hz+Uorq9nLmSCffD/C5fg3BzbKo5gRYvz1zJWv2d6+orAQRzIIhlXgFLGhewAoMRQLmg5ccfZNdwCVpxEwifhcYUQLhjHo+LwViKlfxLtOKLyEEN4RxYonwDgc711Q1wKoKr4xASLfczI9iRYSLgtCQ65vH9JQgU36I13QnKTAIT+dBxNx/YH1NgvtloIyJVDc5rpbv3d84ObTrzdkfGKikE3tRWm9QIip0pAJ9vOvETiHh/H6swEWx8O7YJ4ynd/ilEEQZ/0XDHH9795czlDcALXn5+yWLuA8r8GjBfc8z0jfjUwEsmz0aW8xRo93us6UKgayhJiiNzlTCo6GgN03ruB417kcDdIHT3+aM/j2JUoZ6vFlnh7XQf+IZxD3MQIHPVf5INfrg1NhJA0GCZnXTjHTu/ubpmXvND7JTsZaZfgjDZ41PUiRNhzqinY7ebbRRck98LG6+063BA5m4khlipSNKHOxtm0hHPO44FCe8dvB/+4LLAQgb+ak5WuNfTb5/LylGZeQD6Cibe8/Gp6jsdfm4JF0Vedb8HrV8F6EJ0IYgjc5VIKSmFDA5iFf8QLraB8XXAZwL9CNOg8YjfP+JviksoNhIwV/1nyAbfNVXiYXUcidY80Ty1dl7LAs1YR4R7IAg1N8APxv2ROyR5N3z+kZ4kKGCdC2jwGe8shjwb6wegV2cdwiCTQ/TcCq14jisIGGD8NarjhQKI8KCgD64sW5wY7tX3d7so8y8AZggObjtV2vlMR+XnSpZw34jSbwD4GrpgWqArlPtTLCJRjSDeBvBlAEW5P0HgZqziG7suicKtFbZunfDjasxGPWuJjp3XclntvJaVRFgC8FW+Wp2nRq/WWGx2h747EKzO+5Wt23Ef6jgiNxJBEFRUxw5gXjuR2HupwUgkI8rpJYNqO4cqg08CZoF2AMhh5+89IdCXUxeA8B+CVyRcrW9ontGxVIvIch4MlVkG4Dx0TbRiL7bKeEjkzi3KsdFxUh9Gm1hF1yNRJZOpSnYbVLpFNPhKGw0+gc4bM695GYNfBHhCp7tjgFs7xE+sa/J8Ye/bcUNo85nHQaaZm0lrYyLrH0mdCyDSWV6Uk76TZTm9AZ3uuEUyntIEMo+yJXyu+0IWbaIVS7gCpJ6G0dXM0UMN/iF+SWh1hx5awqXk6ufZNKYjP7ARc8g8RXQhh5EtY9mVMRpvYkqXJFEWJfLzRtPI1I9eYSgXR/w5ABfl0SSY1JGTFDHy3RJd2p77UNaSQxg17rmheLfx08KKGVr7IPIgE+Jv3n+FYWHy1sAvAJhKJ5ZxMH2rqC85/XOAhwqI/BfNlwR+3dHHipX7OMD5fiA908lLNg97YhQKQZSHcFuXJFEI3AAkDAqp/c3hSgjuj/IMFSOfSgxpd98R5zWJEvOr7fwQySFMNH+IRNZ8ckD/0Due74ckIvb1pukmB6+lZmL+uTEJEt1r6k7rtjj1DwDdJBjJv7aEnC919KnIsszNAGZ39Y2DVSfL/eVNR2BilyPRcQ83lEOi+i/MbQq4TmEM/ocDlR7U/vlCo/P5W3TAWXqmfzN1CQdAPMp8zbBQZIEkJLppdQdSSdppURCyilqGh1JZcInjhH6MrNCUyW+PKl+UuaSjz5UuSdYQ0fcFzW50lLoek6m1Q8bXci4jxoMFsW/oTg0qyidUYw2XdCkS5VBgDCQJwortCeq407zTrmTn6rqWvgB65vGn7Nt+bdEZ70O3N6bOBZtH8xGJ7yQFovfeFwHvvyAxCIwKcw6Wbabvz6ADAH5j3CcKX+jIv+/zIpcorerY9F6aoDXh1qaLaXtHH2119T2QpNHkETJBWa49o2BI1EErhvjxYuVfi2VBEJwOiDYiJtSggECs23WKSnPef/fSdk1MkkV2E5kHFQ2s4wiQlaE0JCzPSVQHZTVVtUF6y8fGxNXfB2CqQz6r/MXWdhcSSDjuTwCMMv9g+mZ8aqDjsosrOMLgfyyITYNxEBfIZA2BnO8nGsBuABsBrAXwvmdvVuaH0NMh4N/4iQo9N7z1uZK9ot9njCFCwYCVapfqhkMgDTzTDpq5AuAyw+bEQFh4ZmPgZOPCv2nfSiKJ4DYHnYix4LYqTo/W+kOZ647vAg77EJkrI9EAAmISPXhl0ebKl9ILCHyNyblaOYG/QzbX8rQofyUzh5nvEjR1UctB9W2TB0vS7mz2Nsd6b9taWa1JrQ4wDrQymjGFGo/7Vyu5GzQCYRc9XUYvIgwjpWuY6TMAehta47IxX8U9wL7HlewB4SVoLAdQj1a88zGpvje5LzS+DsIXRb9EAunCziBRyNwAa6U7Dj3R0tnBNQlkQ/IdL17G0C3t+XdvzyldBGDRaf/RXFbDR8clajpvbr2heI6/ljePNVZ2I2zfKlALYu3WSlKCHWgfInNRK2jSgQOXkzcnesL3wbjG7BPw+f5/5G/unXVqGbbylxPDwPxLQQt3EpxPm6Z1MPAZb7oJawD+dmvE+f2xUounvChvK4OWBBoAvAPgdQAIvq5nG5OoNDJXi+bcaecjslcDT+ICrD5jwFvWmr4Pq7gSwO2C73H8+Bh/3LnCKuyKhJG585vOAVCGHIIYqxj07yCeRpzpvuHTpZFe/UqKwDgfoOXigWLlWVmpUTXJYQCML9lZeshpV4cKLC8t2zw0iYKKDu+5MrInnw6lDO/KwTVeGlwOYIXh45WxSPqWU/5tPQfBzjyYJ+cnFOsbmqfRQZOHu63g7gCme3Dg+XlrRk1svSjwDCQBZi9yCQTXCiC1vrPm3Cn65U0AcxDHQEygr2AC1XcwYvxp4cmmuctYouc/cngwHGUeBCHcBJ2Mqs2RttAmIjypXT1//e3lH1MFactz/euYefFbXMWSkm5aR+JbvGp0hrWovBgR+VroesQfuCypE0PN16qsfZStZWjuRfG6pEc9B/F+ylw9Cd7WVCXwDxj0O8O58yXg5Hqm5U2Z74JEqQhfaOqooMIxSKfdGST0HBHw09ZPOp5oBgdLUCsxdJTGWmEh7lqPJvIqAP+CifSKkITjon1dowU+wBcSJeXUyiocsDCoSFaD8gxIAjQfoIfW31rSrgW79rbi3dXzWxpgLLxM2zZf28uzUxQJg76Uy76SaMJtrSEigbydsH0kEnn3vG/6HEiNBEk0qL0l0UOXhn7ffXH6bZgE/jBqKhenL2qcEXztOCtwcfoKZPVVTT/yieZLAiKxcSLMkG1bvLK1xPmyh10t8YhwGsJC3HJLdA8YX8IEPOvRwXKg6OkAPvBjv/LFnatIS9JLOBjMbBQtBpmyy6nQwMB3dJCGrru19K517SRQALgxq8NqLH2WvV/x8JAjFJQuSkQ2wEcoUjKSDzjG7uaBL3B3AP3ND5Dw44Ah6g9He0uiIGIQfix4w3GWWsli7kOER2F8EU1rmoucu8Xfxebi9m09/TV4mR8s20d3YAqZH7yZlZDE54MxGhPpt555ZggjBU+3YBze82Ft+nQnKpJrw3ZpIW4m8jJHdBeAL5CODV5/a9m/bphT2uGQ8fXpxECJ1a89rggik2PE1rV3UMxPEtUyzdzkjtKQueB2KiFLzWKdbyTKaQQ3et2ghlTwMYD3GVo4s7sv4axVMZdVQFberFHpjgsqnIiy13g4gHME3bw8cTEt87aXBXfzUo/IG4gCKBUQ3o+PBkt5iLGC/tgInyqn+0OiAncYCQd/Uh1HCPBCMPoQE/9zc7p0xLrbyh5ae0dfY+JwhJYxafIskCebA0nDBK/w1ZWbnT6CQxjTBgg0l0kWVMShdGSjD10imT87fKlrOpOSxOqnhk8HtM7cDbSVNzO3ADUBtzXNoG3Sz3Fd92LZ4Ynm+TDuAtlU4ZWGI7JCNcLwYx3UCDaVt/3arzwn0eo6DkFCYsIakMl402iIggMoRkwPBEPpYetu7fbAjjspIe0TrWR3kA6lPCPREhWvFvWPz0FF4sUCcVi/qBD3jtl02PPeEN3R0nq/BimTCvwMMI54vLvipfTFBPPyZsT8rSOXBBZ68S2KMU7CoSqoFnjZt5EVPABAD/MGdapm7jaM9dhbVc/lAAYL3uDbFZTngUUlzYdHaVKdVohbK9l9msvueRtOEmkr2gNZFO0ZW7+pfLtXbdHMtSRojFyT9gyW8h/jA5Ax3zw6NajIh0LclYu4HOnUIPM2ad8OPU1XU2P3RalHAHzJYCL1YoUXYFjejIEXm18L/KdX38KE8wWLYk3rZPI0rUkLlYIcF+td0TIQeT+8n3MuRDKygC+WsT+WKAuDQqSFuElW6eKg1wTa1ibJqW495pL2rC3CIBVSylcSdTJKdJ/NwvaxIL/Zj0LcwXSmRrJ5sI8n8OwxPPNDnEZD4Aww1EbmXUTObZ6tiyUcgMB1ysCbnu+jLLj/A5KpIkirCI0RbDLekygJI4W1f+vAexKVBa3IC3EzSwbfc4IY9zAHWVTU1uONWSYfF9u6JrwdPkJaiFsFMuaFuH8fHwQIRN59KMQNYSFux/X3DrthWvFukDAJvoN7BDQ+ZSqocDKUcLranNABpbDa+3HXEo/IJlGU8AqOADCPm/Cllq6IROOYiF1dhkRFQSFeFOIW/b73g58qiY0EzHP8yPu8Q1n/eGgVez9/cHDHVaXGgtvKUflXiFt2qMiUkfd1TU9C9P8NWWJ4R6z9e4/MCP3ZW/eHOk/0vKve8uFLa8zXkDioSBY34fhycJN4qDaC/Nu3fIjOFViCQqWZ83/d3Asi8Wjv3XFaye42XA/zDqvqpP2Ti6AilggdyDwJWhSZm+qRCG3xoUMkcn+bt86kpN8j1nhpeB3AL+WArOc1TQ/90ocXS0jUjZd67CrMupcFtXTFQUWSg1sC27HV43EnyO6IN/o5LT0l0Sm/OVwJkET1X3iCIsk9gvwEd9J3ynz5LnmXKK+E+bNM/ioVTV3CAYBGCj5wrXCwJAv17Q1zKOX5/OnEQtwdOn+w+r6f72dgbWk8eLc/bxd5P7ZiPMW9bE0oiBEAwoK+Eq1TYSHut03F/0+JlRgCgVhNlyLRZKsjS1RXUuFwUQ1KnQkmPe9slkV77ts6p8wzqSqCzF1JLvkaVLT7UIto8xAfggT3j34U4h6wMD4QxlKR8DW95UQ0XRZ8mciHu8EsDit2rz9d9ZfOs7x8WBOy9BK4wsAelrlO882VC1AXIlFWIpkqEAVEE5JkQTPbN8zp3ZJPC5TY20AnLdTMDQTSvm7KGSU7hGlJOscSDkhkxfwoxO1KDz1K54xEs1OdfuDHa5nprqbpRe/60ebSZdwLpqXGALAP3iuQ6B78MCZAlm6TZ9rRUMLIXPI3Qt1TEhUGhTSsvr1kX2cNPvlwghrxyAdlECQIey33J9TM3b3p+m6H/JyMQmF8nQoXG584+7ekqiCI0PSjELfQzQj4XCjgRDQ2OM8A5DXZfbt5euA534g/kxEd/JUvJCoMjpTI263kPpJDhS/pLdLI3PHY0WVIFLJNUGR1ZUXeabS5leb94AeLw7UQ5Ph5Gpk7lxWA0eZrg/yvIQrzO1tivHvgcnOVFNJCkXcfCnGzcPN4/01/05E+hjnkMvT/8/CNLx85FJjr75QTRmSTk1fuXHHcAgutvrQvOaKStMVNfkbmekuiwkLcUjm5zcnmKoCL88kNoVnmniT27p5NXIibcmLVmEeikozkiXRBFeIGsMHvdKRTrCOPSvbxLlaBmz0PUvn470jGvSUxxWMrJytvZ6xQpeS5yhLLvAFTaK+n/bGFw5DIyLLPYiNekugFv2oaCkEElbgQtxa6vgI+RObKoj0z8USxZ6LJGWl5OO1vekvVQu4GgetbfgInmRfF6woRwjta5KBQwImoeCl1HhE95MGr0gy6xUtBhdNYKpK89nVeWzmBBETeK3FkLuWZ3N9BVEMiT8v+Cc97TqJSzVpyZJqsWnYZn+zRr8xzuT+h2swWL8TvP9orZEFFml1f3bnc2ipzfcs1czuv7NRJ0Lc1NRySNAdm30/gx6J0Ifciwu8BFHvwuu3NlwTe8N9qZsWCKw5m8uHgLdrHOJPo1ELc+RdU1JUsUSUc/KJ0SlaIW3YZ74FS0kkhsUQ9JS1hUFE6gpLNfk5El2Qk78JcMzdbHg5R4771oRC3cDODUjm0RJdwIBhM1wE0xKM3Di97xb3a72aXv4JzSFAzk3wIopHkaBLwHqYJqgjVsQOByAP8yEtmMYlu9HseKe++VZZe8vrnejULGyDw5Xvvyh3xZKw/BKWMvFYHkmgak09CAh4eguK73wob15SkcFokc5aHhbih2c1ZektlJv0ggKnezge+3+92p5UrLMDuRzEGlgjhy+bhOagSeRLIF0tUckebwG74HlznIYkKPlboDhvz+P4SiKrSey8cHtAyy0p56CKUFuJmwP/IXBbJ28kq3ZBbUIW4CWg4eIUwXayd6LEodQeAL/gwH6aUvZK+0NfGyw5uCKY9dhUyE8NcoUpqDDhaRFiMoA9Wn8wS3eR/YJpHJFr1Ew6TJIJKye5Dg4jUSL7FB5F3kNCXL3FPnghpIW4/3Faekoa0fSTSzN3lSyFuyaEiN5HU6L4oNRHAL3zjOI2v+sqhsjiB95pnkKd500UrMBidWEWIWXT9tAvne7wO6rkngL6CN2zMxTrwhEQrig+PhiSCSssG34VME1YFyY8cP0mgSvOmm4t2etgYYXUSfzflYeISZNR5uXE+lM/rtYRLQRhq/j3KdxLttYT7gukZFgQ/taNvryldnBzt31eYp7ewDzKPrF1hrjKkJJqPhbglWNNlSFRJC3EL3RAipSRGw1u3lOz1fP2LNmZa52XKhFQE32F/hRbYZZlcJFjaPvOyUz4U4lataVEhbvK7EHc9B91Mug7EA33en8iB8xVf3ryQwwCda75E2fM1wbICEelUOUTBf6TyrBA3MF46U7sMibIXbmRzAAARDklEQVQssjJZNlSaXsK1+TT4N9axwyQoZUQ6nwpxN7wzp3iPr7NQeAgLJjPGQTQDX+DuAPqbn8G8t/oUCU/gyt+c3u6H0g8BuCgXGxQT3979VR7k9XtLIulREHnPON/k7TajWhD8t4ZLwIK4EvaFRD8h6s0Q/tJlSBSdXohbYEn44IbIqichIrBiPW2TRp5VqTixfbJDmKzSTSohCwDzWtx6LiutWURQqWDAN0u08sXUPSB8HrlD0HUz9+bbwU2R4330s+DwJM6TjkMUVwLXl7J7Fwie3eL5Ha2/JCpR/Zdt0uc/EusPoKeAYLyvvhEQqid5XIibBIW4Gdp3EpVU35GG9ZMsqChVHgt5lj/b54XEjL4XpOqJcJvgNe8dnubP5tH9xfRkIjyIHIOBv6tYwhUev1WUNx3rgU1etia83P0qJMIPQo+II5P7S0PoSv4Y3uRqCBTMACzL1fwUk+ikXzWJ3GFSdyopWRWGPHTLQJHOm0LcftTJPBbjHuYgwCME7ZORvBZFJG7yIn+29x/Tk/ouTCwlTYsAnC+0ZnwZr54vxfqD9G8BhJB7lDEyHhfkFh2eNolcpyea2q9n7mTgAdGWQzJLkFUnupJPvodeK3y+65Bo2tHCCCrZ/Z9WIquPi520564vIiWI+sPuDXPKGzxri7AmpfI5qKixT2ykZGPmTpT7Y7Bo4+qzIDGjz/PJF5XSKwC62COrzfP5PHAFRzSCfwCon6xpMK7Xy4z7ssFAnkGQj+ld1Gf4dfdeYvoVBIFkAOBqWZS4ML3F4xgOVgA+LXpHAK/mikQD0hcQKxmJOkFhZK4oCnbnqtt6HPHeEmVJzqPHpCWr0RlExN9cK9ephSAQmSRBWMyEBclasOncN6jgUc/BfvtTN4HwFQbO8/xUzOT53VRrS/ohyCMl57YR6X8aPt+vLJK+vRn4ldiqXs5lrRl3kGDTkffxQg6Hu+kHmfH3HgzREUzGLuE+2mliOR/Dn3Gd+JAznnYhR/DgTpQ7txC35Pd9iCibJNRh9bxNItcyv7thDrX4OQGFQUUZ6mZe6WbIHxNDwSg33niUavcBrOcLsX79Fybv73cgtQ2EJ+ADgQKA9li/tPtL6S8DuFP4mt8enh74FocDPwXMS6UR0z+11cUVIZ5Jj5RYfqRZVBmk6DWOFpW5ywBPCBQA1otS4pazTKJUeTjn6rkYjG8J37IAOYR4QpJMM1fkFpm6hAMAjTJvu/f3oc1uHqkDCQtxw+f70LYPlngytuyYZl7pxiUWERkzn9Y6G/ocV/Rf0HpX3wWJxUHXeY+ZHwDgZ26lWxoOeuY56PFSejqBHxC+ZnVxa+AzIOKmi6iRGA8L3jWi7CL3WvGUY+ohe4PzntFjdeyEl7tfYuh1THSBV+MkvdIIBIUi766He5aLn8v2LAAav8slicrcuczEjx7ptE26cWfLCEXmiinaD7k/5lqJSoKr4Wkhbq3NC3FTDmpSksD1LdX0JSapGs4NA55v/Q5A/xssDu+KxWMVIVJDwWoSA9OSnLwMoDBRztbzVsmh4lhUvNw6hFx+imV7xF6HAtfunUXxDzecQOCHKTfzBQKKzM5c/M8AnhMe/EtFSiZOxw/J4eWZKwH9bbAwcOyklpBaLxGI1bJAyCOYCLm62gqOwMFPAdwufNNaTKK/IIcQWaLjHmuKAigT7GKyArJCfVrSyLfI3HQgUOJZ6DxnZIW42ecc0aHPNVZILDM5yZM0bYKY6evM2JyKJVuDHNjHWr3BjB+BMQt+SuKdHJ7M54ErOOJo53csSB0D0KrA1x2aTscJdXwwjfYroicE772g9OX0J2Xz2rz8WZZ19DXt+nf1HIwsz1wffi3zGpgW+kGgbd8jHXfJPiFzJTMrrORr4WAlgLs86IxHc7zmZJaow6qWwZItSBZUJLP6Upni0i2eT2hZZfjNXpYc08S1EiNI+1Lq6ViroqgWzGT+fVLNXC5FDs3EHEAemctMicXpR8H4G9EyILrz0Izgn08+rzLfIzh3mu4/CvgqZHmAInEXBr5W/Kp7IB5Tv8JMSh73l0u4NBx0PwnQDGrVtzCor9+DnpGSKKFWsI0Pwyp+DIQtALbAxRZo7EYYLRj/kQfioxnKIcQxEIxPABiPN3E9SBBDcjyaEMb/dikSZc21gsBscSFuDYwh43njTY7fSZA/hbhlJ8zYuxvNa3S2q32urmUBiTlarF9ajAICszzAo8eizNcZuEloDfxbw6WBp0+5080o2la5OPUsg24ynNhXlS5J1rRMC683ax4OC49OISb8tLhUf4eXudsZtB/QZQANAPQAMAVyOOx7MJnMU+KWcACyO8g+AO74kIRV2x8XwCrWAJra/kQAlKPFzI3fzoH9n1ypFJ1wqBOZEpJNepu0ELeEJNiH+77h84+ISvd4X3KMZW4aSY3Odn2wKIe1ecd1sko3TEiggCAtgdb9pfRlYP5PYSvqGi8NfPeM/0rhu9llaLhU2Pkn48MXcZM3eza6ARhL4MsBmgxgCDxIG+wgZHtGBMPBvl07KACVAIa2kW2Rj/3QAMKPO2PdCaNzRdU3RIM/Yd6hbhDJQnkfmRuUCb1DM+VTIW7fg4pYRvLiSjcEOoLCQeJgc9i4kEPPxYnhxPw0JJHlQH1JSfCz7RmXw5eE1gB4QfC9n65cxEbrn1VgU+EMO3em3F/+gPDPmOBtfVffSXTqo1wEoKqzBj+ZCdZCkuvFjveRucKSY8rxriJIiTjVxuf0luxdqHFCtRckT9B7UDh4G3PIKEiz5x+4jF31OwhqugLYGaDA1bsnU2sHPC/fk5xZM07mPpMHWz5JHwDYWQiDziwtxK1rCqAbluETeKSzftyYRJu5abRkk4ZQMJmEhbgzQV9IwlypCGjacGPRe561RCZiAGbX16Cic36XGCzZtL3Q9NWgtwqGQk2vApiJizK/hkwhpoVdXPv+DDrQkYcOTw8uI+B1wUffXbaYTXM+38gnLjTeRaWauaCxXXzm74eLT4N8vnryg0SVVO5P6k5VovSNpvU3R3Z7vo+JqpF4XIhbFiWMgMP+WqJCzWUtL8SNokDRWwBSebQhLARgSuxGkbk9F6XmEvhTkqFg8G2HrwgZCae4TBJrtARK32223vB4noz5VhD+3dQWSCchUk8iWSBkZ6MFjNmYTJ3qUTImUeF9VrJsp6wQN8vuHz0lrA9P9GQe5ea9Zq6of/Zsur6bv/cLrkwYn1MpcTrH1pl0pI24OtmIpEUMmrR/ZvgqAPuN+sOgGlGPF5LXgunfRONA9PXDl4b/YPp883TnecHBAQDfhxXc4dq98YudFxl4t5NH/oUUqwvAxjKCWyAR11jJ3ZANhuqKiEFjFibSys5uiDGJyiwd2rB0rqAQNzNRnhXirp2fPAcC4QnOo0LcDPhfQ5RESkXv7fao0g2h0+5SXAB1BPrEvqtClx2YGWrbDMiook3Q6Vj5vB4vJkcS0WOygzQeb5wR/G/pRGCiHwje0Ls0qe8w+F1NwDc7aeyTAL6cvJBm4iJqFHTdOuEmUQNh9ZhOwjsALsQkWpoPjZFE50qEzUWDP+6JxkEQ3Kf5UYhba1fkFiHl5k0hbsqBZq4WWMpeHoJ2XVO0ALIo0Y42/hBAP9LMw/dfFb5p31Wh+hN6JmzwzsN7L2v/9UT5Aq4k0B8Bc/F9AK83poN/60WXHDnoPA2QsWeKmO9HHXc4PiN2sTOPgd/m2PpcykqNT05xHpR6wxhKdB+qqMtF5moAv0Ya4zGB1uRLo4xIdNzDsnxIaeFg5oCs0DR7f99HjugOkoNx17M6kMqVBV0xaV9JtGohhwk8PF8sZQW+h4EDvi5+wlIQ3RaOhAbuuyr0lQNXF51CyILCBgtiQ7s35LmsgsHUPIgi67EjqIPXf0ytxxRzyAX0jwRviJb2cmebmHLxpPNZAEtysNduYeKbkhepaakLvSlXJ41Q1y5+Q0yzwfg5gO15TqDLQJiICfQ5TKHmfGqYUWKwE9RjWOQFEBbiZtRK1NrIdT2vuSipIQpg11/vrPRMaYNI1QoC/uD47M51E7GRgArmgyUKADuviWwfsiA5zdX8iuhw+LE9jlcz6CmH9NN7Zha311I0INH290fPianvAjRTcABuZvA1By6j970cg6Zk8NcVocy/M6Gf4Zz4GkysysspFlvIVxZH3B+CcA+8dm8y/5kJ309NcZ71OoI0wFgnEZ7HFGp2gd8j+wdYxcOhcQURLkK2fuzQTuanGBjPgPAQJlB9vrK7EYkS0QBmmEvCSQtxE3oyGf/++14S1jGLuMaUtrwXNmCJazkd0CW+JqMznAoivfhUPXmmfnS09wtq59Xht/v8rnlsMBD8NrJC2CZemg8ALAX4BcfVL7x3bcnejs8jOsDgDs1tJrWqXQT6p/RUgG8APr52uN1jp77YeGnAe0/FTErqV1LfI1b3GS7A7sWvps6PXxx6y+S348AXIstSjxOr/wBwJWRXXRvBeFazejJ1MZ0xaIgUx1jTtg5+byI5yWPrcQK9A+AdBn4CAKjnnkhhPAjjiTAe2Rq4g+HfPaoGsBmM5SD8H1y8jA7kHXcWCkp9uzNx3qONFW7IzD4OdStPrp51ErFmQ4x4OvYmgE8cO8J82k34eELfemPJmLN5LAc8nxhOGboOiq8GMJKBXif8kxSAHQC2asJmEL/laFq5e1bRFrsSuj4ir/IgYj2LFE9h5rEA9WZQj+wZ57h/miRgG4O2aOItCrxKJZ1lsQ7my3YpLOEilKIKGlUAzgWhCowqAL2RlfirAE5bfvEwgENgHAKwGwrbAGyDxiYAqzGx66mIWRItNNSxM4LjTR9O5A6SKIjmb/lU8a22I4/bOAJDkvFeSa0zRZHSZq9qdlp0LZQt5h6ZIpSEGM1N+3DEVCGq4LGBQziMCoRQCsIRtCLbTwXaZwE74oWFc3XLcJAyLsTNWq+zvXgCplFmJ7DPdsTZjeYZdAjAoVbbFadHNaUAvN/2p+Ch7IgX2oDS34ied1Bve9HCwsLCkujZCaKpgqc5pdKWRC0sLCwsiZ61mG5OwNi0Y3blYduFFhYWFpZEzzpUPRk7H8A55hyKFbYXLSwsLCyJnpUIKL5d8jwzLbS9aGFhYWFJ9KzDmMe5hEESEk27nHjZ9qSFhYWFJdGzDulQ6+cB9DQ3Q/Hqtjndm2xPWlhYWFgSPatQNe9QNya+X/IOVvyY7UkLCwsLS6JnHQLBou8AZsLdAEBAY0KXPGt70sLCwsKS6FmFUXUtlwL4e5EVCn5i9xyyQiwWFhYWlkTPIgJ9NtaPmR4XjmPSZeeHtjctLCwsLImeNRhYxxF28Rzk9S9/uW1OZJftUQsLC4uOwwrQd0GMe5iDMR1/GoQJwlfFyMV3bY9aWFhYWBI9O1DHTkzHHgdolvRVBPrXzbcU77WdamFhYWEG687tYqhCS3eAauUEijc2b4z8j+1RCwsLC0uiZw22zin7wFGZTwJYJXhNCyv3LswlbXvUwsLCwpLoWYUNc8obQqni6QBeNHicielz73yq2ybbkxYWFhaWRM9KrL2DYg4VX0Pguo49SQ9svqm4zvaghYWFhSXRs9wipdTbVPJpAL9s5yPPvIPIv9mes7CwsPAGZLugAMBMI+vi32DgG6caYQYW6dLiWVtnUtJ2mIWFhYUlUYsTMKKu5atgeuC4cSUAoKUxRGZaaT8LCwsLS6IWp8Hwp1ruIKJH0JYDTITnW1B8oyVQCwsLC+9h70QLDO/cXPo4CDcASIBpfklj8WxLoBYWFhYWFh3A6PnN1WC2ngYLCwsLCwsLCwsLCwsLCwsLCwsLCwsLCwsLCwsLCwsLCwsj/H/oE9f9OMyTuQAAAABJRU5ErkJggg==;" parent="1" vertex="1">
                    <mxGeometry x="848.46" y="545" width="143.08" height="40" as="geometry"/>
                </mxCell>
                <mxCell id="AipzV-qaQUW9Grrzpa5T-33" value="Grafana" style="shape=image;verticalLabelPosition=bottom;labelBackgroundColor=none;verticalAlign=top;aspect=fixed;imageAspect=0;image=https://docs.checkmk.com/latest/images/grafana_logo.png;fontSize=25;fontStyle=1;fontFamily=Tahoma;" parent="1" vertex="1">
                    <mxGeometry x="1150" y="520" width="120" height="120" as="geometry"/>
                </mxCell>
                <mxCell id="AipzV-qaQUW9Grrzpa5T-39" value="Prometheus" style="shape=image;verticalLabelPosition=bottom;labelBackgroundColor=none;verticalAlign=top;aspect=fixed;imageAspect=0;image=https://ih0.redbubble.net/image.422320344.4674/flat,1000x1000,075,f.u1.jpg;fontSize=25;fontStyle=1;" parent="1" vertex="1">
                    <mxGeometry x="860.23" y="660" width="119.54" height="120" as="geometry"/>
                </mxCell>
                <mxCell id="AipzV-qaQUW9Grrzpa5T-40" style="edgeStyle=orthogonalEdgeStyle;rounded=0;orthogonalLoop=1;jettySize=auto;html=1;fontSize=16;fontColor=none;exitX=0;exitY=0.75;exitDx=0;exitDy=0;" parent="1" source="AipzV-qaQUW9Grrzpa5T-33" edge="1">
                    <mxGeometry relative="1" as="geometry">
                        <mxPoint x="1100" y="671" as="sourcePoint"/>
                        <mxPoint x="991" y="710" as="targetPoint"/>
                        <Array as="points">
                            <mxPoint x="1070" y="610"/>
                            <mxPoint x="1070" y="710"/>
                        </Array>
                    </mxGeometry>
                </mxCell>
                <mxCell id="AipzV-qaQUW9Grrzpa5T-44" style="edgeStyle=orthogonalEdgeStyle;rounded=0;orthogonalLoop=1;jettySize=auto;html=1;fontFamily=Tahoma;fontSize=25;fontColor=none;" parent="1" target="AipzV-qaQUW9Grrzpa5T-33" edge="1">
                    <mxGeometry relative="1" as="geometry">
                        <mxPoint x="1480" y="580" as="sourcePoint"/>
                    </mxGeometry>
                </mxCell>
                <mxCell id="AipzV-qaQUW9Grrzpa5T-45" style="edgeStyle=orthogonalEdgeStyle;rounded=0;orthogonalLoop=1;jettySize=auto;html=1;fontFamily=Tahoma;fontSize=25;fontColor=none;" parent="1" edge="1">
                    <mxGeometry relative="1" as="geometry">
                        <mxPoint x="1480" y="570" as="sourcePoint"/>
                        <mxPoint x="990" y="450" as="targetPoint"/>
                        <Array as="points">
                            <mxPoint x="1370" y="570"/>
                            <mxPoint x="1370" y="450"/>
                        </Array>
                    </mxGeometry>
                </mxCell>
                <mxCell id="AipzV-qaQUW9Grrzpa5T-42" value="&lt;b&gt;Operator&lt;/b&gt;" style="html=1;verticalLabelPosition=bottom;align=center;labelBackgroundColor=#ffffff;verticalAlign=top;strokeWidth=2;strokeColor=#0080F0;shadow=0;dashed=0;shape=mxgraph.ios7.icons.user;fontFamily=Tahoma;fontSize=25;fontColor=none;" parent="1" vertex="1">
                    <mxGeometry x="1490" y="530" width="100" height="100" as="geometry"/>
                </mxCell>
                <mxCell id="AipzV-qaQUW9Grrzpa5T-43" style="edgeStyle=none;rounded=0;orthogonalLoop=1;jettySize=auto;html=1;fontSize=16;fontColor=none;" parent="1" source="AipzV-qaQUW9Grrzpa5T-6" edge="1">
                    <mxGeometry relative="1" as="geometry">
                        <mxPoint x="730" y="781.613310203438" as="sourcePoint"/>
                        <mxPoint x="850" y="730" as="targetPoint"/>
                    </mxGeometry>
                </mxCell>
                <mxCell id="AipzV-qaQUW9Grrzpa5T-47" style="edgeStyle=orthogonalEdgeStyle;rounded=0;orthogonalLoop=1;jettySize=auto;html=1;fontFamily=Tahoma;fontSize=25;fontColor=none;entryX=0.575;entryY=0.668;entryDx=0;entryDy=0;entryPerimeter=0;" parent="1" target="AipzV-qaQUW9Grrzpa5T-5" edge="1">
                    <mxGeometry relative="1" as="geometry">
                        <mxPoint x="1480" y="590" as="sourcePoint"/>
                        <mxPoint x="992" y="747" as="targetPoint"/>
                        <Array as="points">
                            <mxPoint x="1370" y="590"/>
                            <mxPoint x="1370" y="744"/>
                            <mxPoint x="992" y="744"/>
                        </Array>
                    </mxGeometry>
                </mxCell>
                <mxCell id="AipzV-qaQUW9Grrzpa5T-49" value="Apstra" style="shape=image;aspect=fixed;image=data:image/png,iVBORw0KGgoAAAANSUhEUgAAAPAAAADnCAYAAAAghtuxAAAY0XpUWHRSYXcgcHJvZmlsZSB0eXBlIGV4aWYAAHjarZvnkRy5loX/w4o1AVqYAxmxHqz5+x1ktWRz3szwsYNdxaoUwBVHAEmz/+9/j/kf/hTrrYmp1NxytvyJLTbfeVPt86ff387G+/v+Oa+v+PeXz80ury88HwVew/PPml/Hv33u3i/wvHTepU8XqvP1xfj6RYuv69dvF3rdKGhEnjfrdaH2ulDwzxfudYH+TMvmVsvnKYz9vK63Kdbnr9Gv2u5YdLHnu2//joXorcR9gvc7uGD57UN8jgn660zovGn3d+VAFxLvI689hPA2EgLyU5zsp1GZ71l5f/ctKyf/nJSQnyMMH3wNZn5//fFzl34Ovrkh/nTnMF/v/NfPfXf9+3Te/p6zqjlnP7PrMRPS/JrU2xTvOw4chDzc0zI/hb+J9+X+NH6qoXonKV922sHPdM150nJcdMt1d9y+r9NNhhj99oVX7yeJ0mc1FN/8DNaQn6gfd3wheytUkjlJLzkL/n0s7t633dtNV7nxchzpHRdznOGNfv03fn57oXNU8s7dYD4pZlxeJcowlDn95igS4s5bHaUb4Lef73+U10AG0w1zZYLdjucSI7lXbamOwk104MDE69NrrqzXBQgR904MxgUyYDPF77KzxfviHHGs5KdzoUrT+EEKXEp+MUofQ8gkh47h3pxT3D3WJ/98DGaRiBRyKKSG9iJXEWCjfkqs1FBPIcWUUk4l1dRSzyHHnHLOJQv8egklllRyKaWWVnoNNdZUcy21mtpqb74FwDG13EqrrbXeuWnnyp2zOwf0PvwII4408iijjjb6pHxmnGnmWWY1s82+/AoLnFh5lVVXW327TSntuNPOu+y62+6HUjvhxJNOPuXU005/z5ozT1p/+fn7WXNvWfM3UzqwvGeNU0t5u4QTnCTljIz56Mh4UQYoaK+c2epi9EapU85s83RF8owyKTnLKWNkMG7n03HvufvI3Je8mRj/KG/+LXNGqftvZM4odb/J3K95+yFrS3A3bTA3Q2pDBdUG2o8D9ojbL7v3mZO45npydtR/KG3WlBheqLwJKzeKmpmtY/pakGoduc/h987Rz56q02H1pFl2S6N0vl6l9JXOSIwxELBU7e1TUHFXm4x6Mg/eL34z6UZA0x6je24T4pxtJ7Bsb0Db1m3P2IWc2Fk6Uz47ksojGFlnt3Bmbi0mG4bVh/7EpdduSechHk3/mszwl296PMf1nJyJwvbn+9e31j7fixfDHCtw3/q675fbEtGPrw3fv31bf39Bbnnv+MNonzEF8+WWv7/hl/H8NEXzNsc/naL5YTz/aormbY5/OkXzPY3/dormh1v+qyma72n8fsnyt0Y6qGy3EQIQVHJht3hyT2jkFdKYe6Z2RG87Vhs4LEBYtVs/Uxp80ZMQJY0+Sksm774aeLQ3KBt84/phtEL3jXlGyeq+3bxra9uyJvAVDpA2ECxwG0CIykjRN9NrArtic6nGUenktcIEPGJ1ZzOh2vbcoeV1wIsyJ0OIaTRAN9Wdp52jg0wROgIrkGPcKKZc5w2c9+3UMoCldmNwemh7hF4Rbcw8loaYiRw9wQDYvPncjF2lc5k4JqCWAUZAuQQOA4CSZ8Z+xrIUSQ+aYDhA+FAAcb70oPAuACUuxJxUG/DodzsI1NPrTIGxOCeAUvZIFeC2gePlgF2NMLc4YJ5xwLxVj4PkqolcuyulhS96umVm69wj6V0EeMuJ/eTYw0HclXOvggEYxe9ZqmQHt/Rgti/xOXru1m3rC5Zyk7Nm3mEAzq6fmz3ANsaRV87KRY/Reqq51R1n4UIAeDzBDRFJTDO4BDh3XaUSr+ZGTH7MuEFXph3PihDjWDHu09tqxfaxcurG78taG+IYrvWUzj4WeD+B+kIskb4dVhnQ2xnRzkUR+lqKOwuF2+1Zfkh0mJrxIIGaoLYhXQQrw3FpFaTs2sR3NVRsnxnCPC0B+FSkEBwFR2zVuKQqH7N8JebUxozuCe9sQ+Etc5eVK78iV+V3D4vSPHvFdjIGQUeTXaQ4TbfMvdy9GsmKMdzrfbrabCcFxAEB6WGT1r2ZFQxJyshIGd1tvipGUyedbftIdFya9cxN35SF6pgRJs05NJgKIzYRKq7ZPGYus6wNjY4IzTufh0l0HXRPmbtyRl8UX015BtoyMaMsJTT7CDvlkQJqhv73o9GyVu8Ag+fVvL35/NqOmiRySyi3kkk6gkJASYUxKxFoh+oJOJTa1cN0yTHSbeR598GUqgNz+m2D5uKZgR5Os4NiixJNbSV8ZTmcX7gJ/bATKUSqlG4ICNDVpUCYG4NIe5fMLdxm/GeQ7KalAQ8czts2hQAOuvsWQaENzkYSmJ0kL8A5j/ogCd7nJwwTVRc/Zu0oBXK2qKcwaGjqqdL7XMUj4ZA1J601DoMOfbQusVrzPsKiMQrl3UtCW5FRvPagaCoF0Cj5Vu3xhJ/ZF0brTadcOghCUS5FKt26LevOqFOLg6kAKxSR+uKqkiyEJ8bRzddbWISYEHR3Z4/YWfkenBbQSOfsWl7fD0mh8fXbeSqxdWDnwUFCYGBnQkPqJmoJX9O9D2f87vVJ+eeMG6qe5kdk6obhrISsWtbnPOJf4veg4j+XiflaJ5SrI0orex00JhAx94Iww/LMCk99PPOYXDPVIcShH4PQlIKsB545a7pDK8whxokFUwO8xvVElQnbj/n6Cng1mAv0f68Fw4c3gN6NcWt1L3Ut9TBX1oRDKarv9yKBM5iC9WFV+hvYIARk3PyY8jbKBF1OSpQ8OrZpsIseX8z20gOYz1hojxDsLWAzut2v9whnok5O+3plRCK3AzwHYoWhX9+eH77dpihwJHEVcbQWD8bTF4fw9/Rxi9+9vlJuPnKOW1F10iMh06G3KUO3kVg1lSMBsMifVSiIC8oFC1FePO/NlzKRiHvRvAxgk1NftODJ0Oze0NwmUtB6XVWrBbk4DFCpbeGO6ILtUUPLrtmhzuYt2JprE/GqDBBGfTjkV1CgABBc9SDaaSZPYGBZ/Fgxq8WpzFvkCOmX01FDPS3KlRCB5BznA+ZnJ8gHLbmBOmS4jvTY8M0O5ojUt8tQG+EhVDJEYh/IHVHxfu5sgGr1Xm1ZQW4rZgCPqCUG5aYpLhduT61vbNE6rqZFjTpKqS4ucijb3ivJFMFJQdiUUCKQpx01uw209+ySQY/5XZJFhK2yUS9eqg6YT3b55MGjjj9NFDASwA8pTt2USiHvmyy0VW1BHkNHQjmtjdzy5XBEEK4VV8vcM/WL1gScPWTmicmg+J0KwlFkEbTvpLAV04TgSEKYh0hzTM0zIsrcTo1x70DHhzZHQ4v2sm6l3Sbhgg/QgLujwf1XuBfFG/U6lC9XAp15KBBQPWexXBVbJ2TaOso7aDI9RlqKnK7k2tG8rMGPF3JAFKOgmxCMqgC+hXGQbimLPbKCljL6PXq8SCYxAWHAuFB+teNnnR9coAY/K5WA+oVGADlSiKL0QNXendIkjlbZadSGAcKJlcICzyBM16h+urmpH0L3oLTwf0/7l0hufobyf47k5mco/wXJ7YtxJ+q++thk9QH0UShgVOcKJhL9DMPJ8KfZUliojfAgAQEC418+cU25JcSRlwggTDlK6+RMGnuCRQD/C9sRyLsTpIGXYPznzxMK4Ewwi3pvQ7ZjZKzFwNT4SNqLlx/LdiUtJEl1+aZ1pgBXUKN8jqmYPlF8KCZhziM14oOVI5g8Os4n7ZdIQa2vYB3mA+nOQfBRftYhfEDPAZDWI6XpstVu9XHotRrGlfKons1tbKYIksJs674uIjKCC7rj5Hz1b3lZDgiKy54RsGJzIti71oxaoxmidbhB0ojeVVXivjoi+jPec0E3tROD0xR7wJWoE0o2GXiTZE76F1ygDWanRHAXahZkPgwdZlMviuy2LASVMyhXgHRNmd1bV9kw/LbvNSFbVdcciKWJLRTggaS5WZCUQUl84r4wiJHKsd8K1vzIQ7AQvmR91p3MbD+MfLUntb/cZ5YyD02R+xdNqQxpcRSABSEsFrajTYvNXWGkC1CCyMKGw9U6pGPQpG0G4wKoFiRn6bDBfcg+uJIWDhabTPUhV7FhEHIFdZGnHiwHQdpyWO5ePDPKFqilWTxGET2Y/GaMKNGytceTeIEQkaMnhDDyFC2oTbIU+drPkob+0YigSYT/HmqHKIaaHHds8JlrBUf8rDXgeQEePz2+/pBYtDIdOrGfS0YYEYFksAGC6tORG8KuIOKGplZq8LCYHCw3Ig1VQVhohCBrsytTcDQF8au1Wmc2XE6Et0qMUUDIWBzBTAfxgAp8APlj0Fku+IB5uNQAyVPTEySEmRlL82ajiRKyhx6gShcsiBnBIuXQeaflj5qAjXyo4ikMtLjUAIdOAAy3lRx86IZDROwKYx2rnONonMcfx/zqCo57mQiyf5hJQxVmsJs7CoiA6BmsAM3Yu4CzlGJpC3Rq1PoGeMDgvdyETUwBso+YHbQNBNozAatapnVaCAAf0JCU6UTF35q1jlZGsxFKUBeE4pTKCBZAzBW4J0wsZG0+kq8cF/2XJYHyMk67mTmCYRPMLRjSErQ6QhkhGjyGiPz4WE+jMFLGRGI4K204aIV7I6/l22Tod+ipvtyv19mwi+creA0bRAct8eQNx+xIQbS1B66w26miX0QEKCGTuM7BnAFjNCcaCBPcEMK9bbk4jQEHLCD7a9Iy76xVWkVj/6g8P1r69ytM5l174sevhZIr5SJoppOKrnq8nc/aTd9xSPtsAndzrebSwhPDMACt3DBY5GVeRrvKHucCaPul1bGADEQX5c3lHmsyKcL65vi0MD5UR0Gg7dEetmlxARnmGVpDbVJbB+vx1ji3qzANMRcFQ5gTNfA2VHHm8YTw7tHaWfNLkkPDbgoiQpmJRiElIhAhhmJFV964aZHpFHESanQZ1Er2v64haNXiZAzwQbXnxtjgRpogIi4hroSZ0SqQ7uBD7NevEY7w8Lso8QhU+/V6BOkyXu/uy0d8IL8Ua0qosqylnAlmU5uBUgKGSFO7fvz4QtDaY/VS9G/M5rSIqXXMOUNZeP7EFefzmfn04XFS2pgOmrSM4LyWEa7Ysfm+armrIJl/KM1hyDsp+adW+FcnbK6CkVhg7lVLDwcRqasyjHRZn+p+qMQDL+Ac+QWbKQtdsgxErKOBTF1z+vlsVhJCEgCzIkJHAd0WMNBxQgOpsB87WF0Yn5JMbSTaJ3YEewwevADnYoWigsP1MkK6iuF3AQFCGGahzKsc+q3H8KUe80nZjCavBuSJkTfNVKz0T/QZwEbrFIi+t5lkkloFrBAWwuobMVARrHu2fLQAokUjm1QyaBNERiqofAKLUB7wcuSd7ErTknoSaWZMyDeRbCxlPwEp+7h/25a/az7kd1kt1gQtQx0Aa8VOfXQ8BU4TnuuImqztJvmhZWiDMEG9LKSoBy+EDug1y6oArwIX5AwSMkSUZTy3lNfC48ZKEDRMzNzyRrwy3do4KFo/rgS4PUnp/n1BCyixDJBC2GUfLOoqEW/n8Idt6PvWzcZvEoVb1lG+xhECCAaCsL+K/58tPdB3MH7fFNWnlbxf1NR3zw/+YH+2cMFMBHkMzAa5gOsFC5MWqP0spGEt7W9sLe/D4eRVIkuPQtCFSBImUuj9oeVAeI1Kn0cPOMAZoCPyd9qg/UoCW+whZVKimhAqjjZ2mjFQYZdqBiwACUMwSxuJv5zg75pymuDNuKW3b8Mz6i7A8hICajsCvtfOqGkzyswevYiCQfYMSRZZDK68cdsVhmyQ9eBYO5CXiywEycuS09KGJp/3bbVWCzSFHFUMzLDhJeHORgq0i1zza+Um2zm1yA4lFtgvw6K4WxS/FkIwWKMZh2P1kLjMVwDraKdc0V5eYhW7kzwGlfqEFYCSQZgw2/QqFhMy4szLcKeiIQcheuIQtAimRr3GmNJeRQtYqhVk1XUy9THTp81nO6o8LXus+f3BUeH+zW3K3BqQy2g3mZx6TMlIVG1ZBeg5gEe0Oh0uLNRarvizVG2I97HAl4bUHrRid8G1vD1giRKKbhvgsvf2GRDmgFQpowh54BOjVuFwVxJYXIC7onlHwKssCkBLQAlhn+H+rgE12VlbJH6AbBTfuRtSpyzNVh6PyC9+70sSBSx0j7XLdWXYUqs13f96YlTioIdZc8nvN9f+Q0BeIY03xsyfkHDL9PndqZlCIXQkw9ajLGlqx0tD27m5hZ8qCPOuZyT+CgzMu7Gqfv0JDujZmtrpvIXbCCjFcp80QC3ikLQJQsMnXUdSXU9V5G21phVc0eaGLQCHlQY199kOtJRHIyHHXzWD+KV1tVNZ7kapdjQxMzS1k18mcGNOoAKJ8+wkoUYEF0rL8xle4vUB6fHgkL4ZbdM8kFfR8wfOYs9Af0lh/MTC2UHcBnjZu/e6mYs2aJqeWOkuww/AOAQFQIP8LjbRLdIa4tYq4LY7WW0pFk86bTR6boVk2xpke+WBQlwQ9Jy/iK+fXt8cQjF85PwYuD4sSFW8PG7b3n7DcOJJUT/wPhFJOSe7AtShnVJiR61DHNooDdb0hfoAzIodWtHzVADpmHRYYOojaGHsI3C/RnI+kYRF0EnY1ta4M8hftEEXOH69svF2BjeNE/PwlETCgCCrsRv0pETFJNjYzHs6OA1cMs4Vsh+1apN5yeb2EDiCFGwEWUNbaEkxS0hkCJsJEPRg8B1vWu4/rIxxqv197Zu/Q4J4tKY60Oap8AaPVOJkhG49Wx+MxBTy1HlL/YN3ogHuT2yoD5dvorclZPWV9MiFZD/kGlAZ1JTAa81mkII24KSAVARb3qj8pafU6CeEyaNp611fK9rf32PhorSLgXTS8m7S40zgoZGQzvHDoXx7TQFtULEI+EiEJi5Cj8IJ1ol/dCSUeGkBjDqCCsUGFDO+UP6xF4S+NsJ9QDv2LsvjXkubMb3v2Fg53Inx0roGYpTuZKJbS6iA3sVShjFdHdznuKXtDs6L/0HjmBesqQhh2H+2ZvTZX5q3DL/2p7jHmnXzDjU7w2sL8yZeDyLwlov7mQTQeBtcHeHQ1pyCDVis9kZG5Dm98tswynKlDFP7WtBlQ3/eTM4a7/NQA/DpAJU/5tkyRBY9jhZRkErXs13HwkEwPvXgcgKubiLRAfX3q8fM6fGRR1sDKGrqpZdvn8UdRtfiCbVT9cyA+BdxUfXU2t2F6FTF0vrntK/6zV9zrL0AJ8O3tCwytKNZ+k2x5lCfLJt/mubfZdn8nObRDyA/6Zu2MEsVacQsXN3ZgTYBsgp+OMa76b4z4VZzH8Smzx4XtvWgg5NS33qqRIRcK2aOG6cSch07wcGpe6pY4qwd5yI2IFdTRmleW+41Meh2tCMPJ+ZS9ViH5QYD/lqDHsf+ScY/zKfkn6YWIMpFDzEPlxqMmM4CGU73HR+Z57pbUqqJArXFHy4Rx1211Q58RKgarSlSxmAE9nHnny4zMUa6tZ9aDRt6sBPebiQOZhuUCceDkKiypTX2EaGECaUQo4XYAXkcqkkqSBRG89xNKGafIq5ptjnGq0pms8ia3+xRtrza1Cq4w2dXIoh3TZc4e42j5QjjVZCCbxnTzhDkhPRw/WQ744MBVcSjSnDRpSjkcRDYd2NvM1VQGg8dr5NYqeHlcFcwYDCkkxt0segi0pRrHs/m39QaRs30iJ5wfPatLjJGPRaZ63XgRFoOcW4DWtOK/u3oe6y2EexCQPCRTh9RK+qDltqr0wPMpEEtKEJMzKgqlmwCnyQ5P7i9avOIPqIAaQvQMt6tDJukNq9IZjYJmKJI6UhKGPEdBtYzOKPL0Olwz+9WQvS0lDwzbYSLBdKzFiy2tBqcza0ifh/w3xm2rhRE1xriiDajzzwySg9GWVfvE/9Tj9oBRqi3qQTADhN8zLmm1Qhpd0YPMmB5olZKa0lDvcC10WJoF61xWRdOQE0JmhIsow1/DFsiYGiELnWJtvKI0Y330X970IO2nsExTq1IPUu/r3/oK717ldrrU21N6CEefWh+/PTHD+99tBAJb/Kx08f6h6e28Wv9/h+MpI+bxMKkf+PQdrN2xbGVZ8kwETsChwNCrp20oJqmr9HJmKBdvP4rDBUc4dsBYEXEm82bUh4wvguEQ9tYqOJ46Ex4CobS4zbini2xNKYeNerDY44nVFWzLHimKFwsF60bGg4GYpwZ90udwfxbTzRpORgqyQnbSYDbQ2LD7KuoOx2H8epSwHZAZg1cwifR/tosaxMZNCDRukBP4GUBg0GaXgygnXwF+3nSEgONg4NI3a7XKabHq467ixaipGTFz349/eNs82enf5xt/uz0j7PNn53+cbb5s9M/zjZ/dvrH2ebPTv842/xp2t/ONn+a9rezzZ+m/e1s81en01wRYNNWjx0xQ87nLpUDlkuP5qHsesh6msehj4TkoSGkJ4Z0TIsad9rEPtq/u1aRPkda6P8tZK9HaaEKrYgs/4h6PWyxmvl/M70YPWKSk7oAAAGFaUNDUElDQyBwcm9maWxlAAB4nH2RPUjDQBzFX1ulVVoc7CDikKGKgwW/EEepYhEslLZCqw4ml35Bk4YkxcVRcC04+LFYdXBx1tXBVRAEP0Dc3JwUXaTE/yWFFjEeHPfj3b3H3TvA26gwxegaBxTV1FPxmJDNrQr+V/QggBBGMSEyQ0ukFzNwHV/38PD1Lsqz3M/9OUJy3mCARyCeY5puEm8Qz2yaGud94jAriTLxOfGYThckfuS65PAb56LNXp4Z1jOpeeIwsVDsYKmDWUlXiKeJI7KiUr4367DMeYuzUqmx1j35C4N5dSXNdZpDiGMJCSQhQEINZVRgIkqrSoqBFO3HXPyDtj9JLolcZTByLKAKBaLtB/+D390ahalJJykYA7pfLOtjGPDvAs26ZX0fW1bzBPA9A1dq219tALOfpNfbWuQI6NsGLq7bmrQHXO4AA0+aqIu25KPpLRSA9zP6phzQfwv0rjm9tfZx+gBkqKvlG+DgEBgpUva6y7sDnb39e6bV3w+1znLCVzzcagAADRhpVFh0WE1MOmNvbS5hZG9iZS54bXAAAAAAADw/eHBhY2tldCBiZWdpbj0i77u/IiBpZD0iVzVNME1wQ2VoaUh6cmVTek5UY3prYzlkIj8+Cjx4OnhtcG1ldGEgeG1sbnM6eD0iYWRvYmU6bnM6bWV0YS8iIHg6eG1wdGs9IlhNUCBDb3JlIDQuNC4wLUV4aXYyIj4KIDxyZGY6UkRGIHhtbG5zOnJkZj0iaHR0cDovL3d3dy53My5vcmcvMTk5OS8wMi8yMi1yZGYtc3ludGF4LW5zIyI+CiAgPHJkZjpEZXNjcmlwdGlvbiByZGY6YWJvdXQ9IiIKICAgIHhtbG5zOnhtcE1NPSJodHRwOi8vbnMuYWRvYmUuY29tL3hhcC8xLjAvbW0vIgogICAgeG1sbnM6c3RFdnQ9Imh0dHA6Ly9ucy5hZG9iZS5jb20veGFwLzEuMC9zVHlwZS9SZXNvdXJjZUV2ZW50IyIKICAgIHhtbG5zOmRjPSJodHRwOi8vcHVybC5vcmcvZGMvZWxlbWVudHMvMS4xLyIKICAgIHhtbG5zOkdJTVA9Imh0dHA6Ly93d3cuZ2ltcC5vcmcveG1wLyIKICAgIHhtbG5zOnRpZmY9Imh0dHA6Ly9ucy5hZG9iZS5jb20vdGlmZi8xLjAvIgogICAgeG1sbnM6eG1wPSJodHRwOi8vbnMuYWRvYmUuY29tL3hhcC8xLjAvIgogICB4bXBNTTpEb2N1bWVudElEPSJnaW1wOmRvY2lkOmdpbXA6OWFmMjY3OWItODI5Mi00OTVmLWI0MjAtMzk2ZTczYzI5MmZmIgogICB4bXBNTTpJbnN0YW5jZUlEPSJ4bXAuaWlkOjk3MmI4Mjk0LTNmZTUtNDdhMS05NDRiLWMzY2VhM2E5MzcxMyIKICAgeG1wTU06T3JpZ2luYWxEb2N1bWVudElEPSJ4bXAuZGlkOjdmZTU1YzI5LWQzZTctNDg4Yy05MWU3LTUyZDNlYTdiOThhYiIKICAgZGM6Rm9ybWF0PSJpbWFnZS9wbmciCiAgIEdJTVA6QVBJPSIyLjAiCiAgIEdJTVA6UGxhdGZvcm09IldpbmRvd3MiCiAgIEdJTVA6VGltZVN0YW1wPSIxNjMxMTA4NDk0NzUxMzc4IgogICBHSU1QOlZlcnNpb249IjIuMTAuMjQiCiAgIHRpZmY6T3JpZW50YXRpb249IjEiCiAgIHhtcDpDcmVhdG9yVG9vbD0iR0lNUCAyLjEwIj4KICAgPHhtcE1NOkhpc3Rvcnk+CiAgICA8cmRmOlNlcT4KICAgICA8cmRmOmxpCiAgICAgIHN0RXZ0OmFjdGlvbj0ic2F2ZWQiCiAgICAgIHN0RXZ0OmNoYW5nZWQ9Ii8iCiAgICAgIHN0RXZ0Omluc3RhbmNlSUQ9InhtcC5paWQ6MDNmMGVmZjEtZjdiZS00MzdmLTgwNWYtZDFhMTU0NjE1Njc5IgogICAgICBzdEV2dDpzb2Z0d2FyZUFnZW50PSJHaW1wIDIuMTAgKFdpbmRvd3MpIgogICAgICBzdEV2dDp3aGVuPSIyMDIxLTA5LTA4VDE1OjQxOjM0Ii8+CiAgICA8L3JkZjpTZXE+CiAgIDwveG1wTU06SGlzdG9yeT4KICA8L3JkZjpEZXNjcmlwdGlvbj4KIDwvcmRmOlJERj4KPC94OnhtcG1ldGE+CiAgICAgICAgICAgICAgICAgICAgICAgICAgICAgICAgICAgICAgICAgICAgICAgICAgICAgICAgICAgICAgICAgICAgICAgICAgICAgICAgICAgICAgICAgICAgICAgICAgICAKICAgICAgICAgICAgICAgICAgICAgICAgICAgICAgICAgICAgICAgICAgICAgICAgICAgICAgICAgICAgICAgICAgICAgICAgICAgICAgICAgICAgICAgICAgICAgICAgICAgIAogICAgICAgICAgICAgICAgICAgICAgICAgICAgICAgICAgICAgICAgICAgICAgICAgICAgICAgICAgICAgICAgICAgICAgICAgICAgICAgICAgICAgICAgICAgICAgICAgICAgCiAgICAgICAgICAgICAgICAgICAgICAgICAgICAgICAgICAgICAgICAgICAgICAgICAgICAgICAgICAgICAgICAgICAgICAgICAgICAgICAgICAgICAgICAgICAgICAgICAgICAKICAgICAgICAgICAgICAgICAgICAgICAgICAgICAgICAgICAgICAgICAgICAgICAgICAgICAgICAgICAgICAgICAgICAgICAgICAgICAgICAgICAgICAgICAgICAgICAgICAgIAogICAgICAgICAgICAgICAgICAgICAgICAgICAgICAgICAgICAgICAgICAgICAgICAgICAgICAgICAgICAgICAgICAgICAgICAgICAgICAgICAgICAgICAgICAgICAgICAgICAgCiAgICAgICAgICAgICAgICAgICAgICAgICAgICAgICAgICAgICAgICAgICAgICAgICAgICAgICAgICAgICAgICAgICAgICAgICAgICAgICAgICAgICAgICAgICAgICAgICAgICAKICAgICAgICAgICAgICAgICAgICAgICAgICAgICAgICAgICAgICAgICAgICAgICAgICAgICAgICAgICAgICAgICAgICAgICAgICAgICAgICAgICAgICAgICAgICAgICAgICAgIAogICAgICAgICAgICAgICAgICAgICAgICAgICAgICAgICAgICAgICAgICAgICAgICAgICAgICAgICAgICAgICAgICAgICAgICAgICAgICAgICAgICAgICAgICAgICAgICAgICAgCiAgICAgICAgICAgICAgICAgICAgICAgICAgICAgICAgICAgICAgICAgICAgICAgICAgICAgICAgICAgICAgICAgICAgICAgICAgICAgICAgICAgICAgICAgICAgICAgICAgICAKICAgICAgICAgICAgICAgICAgICAgICAgICAgICAgICAgICAgICAgICAgICAgICAgICAgICAgICAgICAgICAgICAgICAgICAgICAgICAgICAgICAgICAgICAgICAgICAgICAgIAogICAgICAgICAgICAgICAgICAgICAgICAgICAgICAgICAgICAgICAgICAgICAgICAgICAgICAgICAgICAgICAgICAgICAgICAgICAgICAgICAgICAgICAgICAgICAgICAgICAgCiAgICAgICAgICAgICAgICAgICAgICAgICAgICAgICAgICAgICAgICAgICAgICAgICAgICAgICAgICAgICAgICAgICAgICAgICAgICAgICAgICAgICAgICAgICAgICAgICAgICAKICAgICAgICAgICAgICAgICAgICAgICAgICAgICAgICAgICAgICAgICAgICAgICAgICAgICAgICAgICAgICAgICAgICAgICAgICAgICAgICAgICAgICAgICAgICAgICAgICAgIAogICAgICAgICAgICAgICAgICAgICAgICAgICAgICAgICAgICAgICAgICAgICAgICAgICAgICAgICAgICAgICAgICAgICAgICAgICAgICAgICAgICAgICAgICAgICAgICAgICAgCiAgICAgICAgICAgICAgICAgICAgICAgICAgICAgICAgICAgICAgICAgICAgICAgICAgICAgICAgICAgICAgICAgICAgICAgICAgICAgICAgICAgICAgICAgICAgICAgICAgICAKICAgICAgICAgICAgICAgICAgICAgICAgICAgICAgICAgICAgICAgICAgICAgICAgICAgICAgICAgICAgICAgICAgICAgICAgICAgICAgICAgICAgICAgICAgICAgICAgICAgIAogICAgICAgICAgICAgICAgICAgICAgICAgICAgICAgICAgICAgICAgICAgICAgICAgICAgICAgICAgICAgICAgICAgICAgICAgICAgICAgICAgICAgICAgICAgICAgICAgICAgCiAgICAgICAgICAgICAgICAgICAgICAgICAgICAgICAgICAgICAgICAgICAgICAgICAgICAgICAgICAgICAgICAgICAgICAgICAgICAgICAgICAgICAgICAgICAgICAgICAgICAKICAgICAgICAgICAgICAgICAgICAgICAgICAgICAgICAgICAgICAgICAgICAgICAgICAgICAgICAgICAgICAgICAgICAgICAgICAgICAgICAgICAgICAgICAgICAgICAgICAgIAogICAgICAgICAgICAgICAgICAgICAgICAgICAKPD94cGFja2V0IGVuZD0idyI/Phg2h3UAAAAGYktHRAB0AHQArHmJ0j8AAAAJcEhZcwAACxIAAAsSAdLdfvwAAAAHdElNRQflCQgNKSLbBydTAAAgAElEQVR42uy9eYwk13kn+Pu+F5GZlVlX3zebNymZokiRo8vWSBSl8SlhBcmesVe2YAOzHusP2wPDhsewd9ZYeBdYeGbWwHoG4wV2rJldryxLtgby2iP5kGTLoniJEtmiRDbJJpvNPthd3V1nHhHvffvHey/iRWRkVdZd1cxoJKqzKo+IF+/3Hb/vAkbH6Bgdo2N0jI7RsfUHbeSHnb106fbvPPHkn33n1Cmcv3gRiwsL0KmGiAGBIQQYMWAARAyBAcAg2YyzGR2jY4MOAcTtzWyvov93QoBhgI3dyiwGIEbUqGNycgLHjh7Dffffj8NHDv/iHXfc8eUdAeB/8+/+3c+8cubMf//1r30di0sLew/s3fdgu92GMQKtU4hYmIYYJQAmeM6jLTI6di52C3s13Ltwe1fcg4KfLAKQhRcRQSkFVgoTk5OYX1h4ttlsnnv/+x/CvW9961c/8pGP/C9bDuBf+IVf+LXHHnvinqTXfffY2NhtV2dmkPR6aC8tgZmhlLIf7i7Cg5iDRZARgEfHLjjKe9UE4OYBoEYAaBEBAehpDWMMms0mxsbGsH//fkS16HKtVv9vP/JjP3bpl3/xF3910wH8G7/+G//q83/6+dbYeOMXOkvtvdeuXYOIII5jREohiiIYYyolWfkLR5bz6NhNmjjcq4OeD/qd18QAoLVGmqbodrtQkcLhI0dx8OBBMzc3+7/+2q/+Kj7y0Y/+5qYA+N3vePc/37tvzx+8cPo0rl27hka9jjiOQUTWVK4ALtZwoaNjdOxUsmglICMwqU3pdV5beyAzM0QE7U4XnW4Hx48fx8MPPwyO1L/83d/93f99QwD8/PPP15977rkf/OTPf3LswIF9nz579izGWy3EcQxjDET64edPcHSMjjesxnbcj8dCCGD/d4SAZkan08Hi0hIeeughKKafF+b/8tnPfra93Peo5f74xBNPTL3w3HM//vKZVz792KPf+Njc7CymJichIvkJVIB1BODR8YbX2ERgooz4YovaAjaICOKsVzEGcRSh2Wrh1KlTmJqe/pBO9MvHTxx//pVXXukN+p5l+aMzZ86859Wzr/6n//G3fhNEhGaziTRN+4AagnkE3vX7WuFjdNzYWjrTwEQwItBpikOHDuHpp5/GwsL8/zlWr//sxz/+8dZaTOjo5LFjHybQ51gpMHPBxxURMHN+IrscuBL8j0rLItg6os0AMC4CsSMY+k1iGrdyTXc0gAMl6P9vjEGtVsOVq1dx331vxcHDh3/tzjvv/L3f/u3f7g2tgX/gHe/6uQMHDn4u1brALFMQ27qRTGbKHrR6omCjz4Py89kxC7NJpNAb3cyu+j8zI0kS7N+7F0998ymIMf9bs9n8n4f2gX/rt37rN5cWF3/n6aefjicnJ6GTNPzWdQG3KHW0+7jtu50Cl0kjTieQDc2L04f2b+58aZPP1J2MwOQCJfhSg2JSwWYvjJDAwECcVUIbsAD5ege/oxGgK60xY9BoNHDhwgV845FHvzo7N/u3QwH4/Llz75uZmfmgYrYLawREDAJBCNY5XwV4q+NhAoLLOQsMge0wrawM8flyLvxObuNKmCpHG3huFVfqTkEod1WKAJZsLXmrVsmdSwjg9dwjD2AaAXhF7SwiiKIIS4uLOHL4yL3vfue7pp/93nf/elkT+pP/4l/8xoF9B/75tWvXrOksAnBu09GQt0mgIdCWeTMAiQEZDQrgrMEwIXidU28AaJFNJHECXSaS2a32nP2GFRDEsoTMzvKQIT5XD/E6j9RwW2uA7PooUWA4gQnP+AtYCMowWIY5l2HXITxfcffMwCfAkhBYstVAJuuMVIYQhxOWgLBHsgENtWZvTBBrra0WvnhhSsXR//Do1x/5P5bVwKTNz3Q6nfclSZJr2dLmXU77SrYR8gxvEgeIzEwlr38BooIUIaI8dW1DNV554xadPEP2vJm8pBIQOLMQCOQ223KeXJh0RysAmIOPcDall5PC7tpDd0Xs78X9lswG2Crl8xUH2hxoIAERYJxIY9j76T2L1bpAGYDJXpNd52HW7I2rhZVSaHc6GGs2xyCU/u1X/vb/qtTAv//7v//JqFZ798zMDGq1Wuav0gp6zAT70mpbAhm2DyIQ23iXYQdeF0dmIgtqt38FZBlYQbZRsCkPCjBDmSIWCkPt7A1HK2pEQIYt8Aw7c7sc7GEUw/XLbOMMJX5bc/6gfEEpAInAuFIXsS77OhfCgGGEIQ68dv0ZhhggtgLMPaz75NfN7QsJ12EtJBatYs3e2CCu1+u4ePEi/usX/uvCQBP67CtnfyqO4zcXtG/wQeW4rwQyPAOwOAD7f5JnoljcBBkoYt8tlD+Ml8rup2zRw+5hcWSWFHjpzGnzG9Y/AgBLYUOuHcAWROKEHEGEYNxPIcq/Hpz9fT0PQ6r4O1LOXLYPCENEZcAVAoTt+mTLtSyAZQiKewTgYbTw4uIi0iS5/XOf+czP+79H4Yu/9a1vLc5cuYI4jgtvHmQyU9mQpNyT8sSEv7/eChfkWl2cjxlyq9l7wjcXMkql9M1SaQYub5JJwe/zsV9ytqG3AsjZtOI0NoWgI3Gaq4jF4QmZYjatiNeycGtCubvhStO8sQIIwO68ynIhcLELhaz+REGl2k6BGM5IeLAAhmEk/zzJjOfA7xVxlkEVpSWllUVgJo+O1TN/koWWms3mrRdfv/yvAfzHPgC/du5V9JIkM59DcqnK/+3LFpIiPyPwMU2B3+5CAk22TliQOm1jMpYXQpYzc2AvCpCNArDfltZasPggKGYYsqEkFuXt6uDjTElQBQCWXDHTMnqISlSf1+RC1ny1TQ8ERuDWyAk5AsT4s5aAlgjIJXJCx4WAPIueM+sywB8PXmMkc2eIBMrdByZAEYPJchlE/r5QTgQWqmJDv1lGAF4zdq3wZiIoIszMzODpbz89W6mBL1563Yy3WoiCrCuvhYfVwF7DFveHseYxG4ikSNCDVgYcG6ga5xrZmYgWEKYEXK+peQAkhqlzKqaUi2NZIQzRBmlqIBograCoBiYFFvbUTaUHByeUcnUlhVi5lDR0tk5ZowOXRgdCD4RUFFIA3BhDHMVOKKg+K0hWsCuGMWCXD29Znzs1AjEaSbcDNgliaMQERGTtZ3ZuUMYnkF1j34UFjkvHKMV2fXSjU2SiNa5cuYI+AP/5n//5no//5E/Vdb2OWqMBrXWWKjnIhOYKRHsA+p1jSCBkQCxI0EaqOqhPRNh3eAL7juzB4eOHUK/XALLRqsycJONvfb6p1s28Bn6sAxuBAENoL3Rw/txFzFy8jmuXZ9Fd7KEmYyATWbJeOH89qQKAbajNx0or4BAiiy0BZWBJMwFBU4SOAD2K0Jjej4NHj+HoTbfg4NGjaDTHQBzlpjQ2N/NNstARQyBIdQ+L83N47eWXMHP+Ncycfxnd9jzGSBDDk5EADEGVOXrj9ggF5vvoWLUPbIzJmmQIgNm52X4AE+jv3nrfffd899lnMdZorHKTSMHNsuab0wicApxiIb2O+lSEN997K+554E4cuuUg1DhBw0C0vdNENjtLhKw5GPp8hYYlg35WvJZMydzmLLQl5Dar07D3m7vRXdA4++JFnHr8Wbz07KtIujHq3AQZBRJ2GrnoWhBR7m4S9Rn5VrBJ5uUbCIQYhhmaIixpQjS1F/c/+E488J6HcPS2OxG3JqHBmU+8VckOHsAkbNfHVbXGkmBp5gqef/oJPPbVv8arz56C6rXRUnVAUjCME1a2ZwUxWX9agkUYHWsGcWYNG4Nut9MP4LSXpMsV5A8XUwxMR6d2RKWY783g8G178e4Pvg23veUETK2Htr4CrVNoaKcFvWI0juGUjMFeF4ClAsAlTRlu2rjVwM33H8DNb3o/Tj3+PB79m6cwf2kOTZ4A6dqynpwE37C8hWr97ASM6z2Do3e/BR/86D/DXQ+8Cz3VwGyi0U38OnKf9qVltPH6tXROfFkO0aaWKqPQmD6I73v/j+GO+9+Jx//6L/HIF7+A66+fx55YAcangJaJtVGCxgajGaFHGw1C++r9JikoYyEDURqz7au45Z6jeOi/eyf23zyBJVxFT9owsYawgMhkbKoUTPDNNxf9hs/IGEMwJkFXOqjV6rjvPXdhfGICX/vLx3H5zCzGo2mwKGvSCA9chSoNTD705jUvK8y2Ne5653vwT37i4zh011sw0wN6YGgVQ7PKCAwr0AhEBpufbOpDRJy5rS5ijFRrLPUSTEzuww98+GPYs38fvviZP8K1s6exr1EH0qR4alRuZTg61o3fksUbbdzHqjwBngTEBkt6AYdvncY//tF3YN/JcbT5Onq0BEMaoowT9CYjOCRkeGntNMyqtqs/B7FdEQwbwGh0KQVEcOu9x9Be7OKR9jcxe2EB47UpkLatUIiLcXGugIIJXEBxlomQwtWlBCff+iDe+6Efx8G77sXVFOiqGCkpaNi2u2FYyoaWODcsNhvGFAhV2ASWVDGIGHOSQuIm7njHe9HtJvj//vMfYG7+GiYiBox2bYNHZvOmMNKlsC7nfzRrym0tSFiXbAASpJRCR108+L77sPfkBLpqAV1uQ0caJjJWQ5NkyR2WvQ5yglwKn2SJHqhIwMAKz8vJGpKFUwq/h9WQ9pwMjEphoh66tICumsPtbz2Ou992G3hMkOgeiCUzY7NstaD7govmZgmleRCNQUphMdFo7DmAd7z/h3D07nswqxWWRCGhCJoVwC6ZwqVhZQkcQi7s5X+3/gcGPCcXhoIhl4FG0GQth4RjzKUE3ZzEXQ++Ew++7wPogKGJrVDzMf8BocjRsQ5fuGSRcv5HXp/fBOOYYwOBRkcv4ua7juHkm47B1Dro0RJEpbbShoyLuggACgysMGQV+HmOj7Y/Oc/y6vudBH8r/RMbqjEuDzvMFsvyerNcYIGQBpTGkplHPE249c3Hcej4Hiz15kHsNnfZcxC4OCpBDDuCTMA+BEBACoW2Ae6470Hc9H33QjfGsWQMTBTnqZxEWQplkNJhBRpX/L7wMO4hy7ymGDW3hSYGJCZnzY1bI5cVl8X2iWFIIVUxFrWgtmc/7nnn92Py8HEsJalt2E/ICjBGx8Y7OKEs5I37WJOlIgoZpNLDrXffhMaUQhJ1oDnNNJwvnCfHBqMkWaoLnav8Kal4vgw3Y/clwuw/ctrBk2b+AQgMGRhOkGAJew6P49gth0CxRiqpZWgd0OAzlEQyJR/2EaaszpeQCkFUHbffex8aew+iLQTDUZ7qIBWxXFel5ePsy1eF9SW4rhw/ELFprb4CTDx55Vh8MnnxlBOA4AhdYXQpxt5jJ3HLm+9BzwCGOEtAWb7pwwjgG3GsG8AiQeDfaRmNFM2pBvYf3Q+tekgpsUkc5YycCm5j8E2nihtPFc8HW/k+U7DsnmXMbpjmDLIgZY1EdxA1GQeO7kVrooFe2gvkDbmwVO4z2r4AVmsZHwZyzQJ62mBy734cOHIciBvoGYE4k5mC81wfHzF8brFvvu/Z7rAKKY/dUqEdqn+94QiJMLgxjpN33g2K60hFnAlOA/AZlDJJSZqOjuGcVdpoDSxkk+stkQstCSb2TWBy7yS0uBpbW6aEtRcIUhCuKgPYDAVgXgbA4ADAXKCPkUoPFAlaUw3UWzUYnViz0hUc+OQQWzsMd51WYNlqLbJ1z8zopRoHjxxDc2IahtgWKoCsC+M2tGBYoTZIJq8WwOxqnjlfG1f1FALYf2ommIShQZAoxp4Dh0BxzV2PPwcpdDAtmkI8AvAGHOtmoYnyGK6t8bRbV8WMWk257hKm5HWtn0gf/HyVb1/mT8YnZrhMMooJpGybGYgvMiiZioGVkLkK7lcatlFBc3wCqlZzwRlk7L13bmmbJPuwC0UBkDWsBVFrjEHYlSKKH1xHeZFExncEFRejqXbbD2CUzD7PujLZTJyMrcXum4GUx3JdYj+TbZnlfEJyHSXsXuRgU3KwFnYjs0ufNEQQ5eqjKQidERUqtXbPApHLulKAqIzAMtnGsGtnXJKHyroWGAz0o0bHFgO4JEjJZUCJyfve7tpbFOwv22hGHJONoHuH1yhFbVLQwIHbn9XV7vJ9m8UQhGGMtvH/0rXn1Uq0QjeT0bGtGrjfsnX1tTcQe0CUh2f6r7/fHHTpLSh7eWHMeJCvu5ssFF/1y6WWw54HMyOsbtqxQSx01XPXbUP0DbJUA+YlyNrXSwqF77tT2BVIKiOZS5DFK13XDtm1V3iDA7j/hnrxXB3nC/G+O7NzvJYJnw7bjbJ43da3zhNKdtuaZDF0CsozHS3AYi0WsLHNAECjOdA7EcBZvM8nRlCQASw30qykwWRLDjrBSvgrVBJh94+jIddV1Hf+8IUoJEHXSQq4gNGx033gEM1VG3j3+nwbJQf7rjvs2rOL1qTQ+k8ymZ21DGYZDbvbHQDuQ/ONaCwNTv0rJlqsAcDYnZxsIXQYVJFlbIEZddLZdT5wv6l5o1AXo3jlsqLN981DsfhidOw6AN8IumV0rEm00Y0ksEcAHgH4DaB5+38xut83GIBHx42seQst8mm0pW5gAA9IhNj1zt8IwEUAyxvhzr8RAeyrkm6c21gYkfRG93+zn6YSwLryL6NjZELvJB9wdKwI8tGxsUe0+VtcSrLixtLAgJtZRP1l9IWulKtas/BdO3vrl8fEFc43mDgz0hS7TgNLhYF1I8liKRS2D5pLtHrfT3aN19h3h2V5J3mkhXeTBs760tyot43ySYHCFfWuxXLC1RmcaleswIoAHh27GcA3urwlN5nPDXArDdAUrDUfjXbRCqzwi6ANy0j77jYA043OOfrZTQRmKk5kkmJy/xt2845Qu4t9YLrRo3/53CLKJuHmTRbz/tBvPLsyu/Mjk3r3amDpC/PfILsyVC+utxUFKYTkauv8r1aqgpUba1Ey2U2jmd67WwNLOOldbgA9VN6r4hM57EQDKrSrNhDW2ZDy7C2ldQgnMezO9SlNxXDzkEh8R44RwHaHBq5o7+v9Q6uVKGu/Er5hVxV7lwl1chMIKn0+ymY9hXSWXQfJR484jU2Sh6N2056XQoTX9bSm/ouQkVu8czWwbW6e35msXYybnyulcYi7VfkOjIhJ3pA993gZNhTEhe1rAWwgogvzjrzJ2T/FYOfLtNx6YMiAEVW+Y9golXIXmND5/JwczMaYYAxnPotoxwPXtlPsG6osroLdGONmHlG2ecPhZlU6R3wjO9dbOhgtVfHeXQBg8WRVPkbFN3cXKRovI+27i3zgPiDcgAf5xu4B6JZPZvDbmCvJrd1vp0hB64bXxSMA7ywAZ6ZyMOi6bC6Ta+7OTENPRdq5UPfXaZzWzKcSA74qiVbQokU9lGkpP3ccXjPLrgGtnx/so2oixg2zw0gD7xYfmIjAzFmLWSm18c7bBks2zKtSdruewjvFjCwQMtnYQuVa57rWqRLM6y2wz6Ve0eL0kkhA+AS51BSMJt1NWpfsuBk7B8uBWsLZyaNjRwK47MN6jSx+zIawCytw5if6AV7LAnin+YGCbHg3+wHg4IC8o/wiSNyUQZ9YGWbym+wixaQQnandAnitxtolO18IJAIFghiTD/UeIXfLjg0ZLyrG6Vw3M5dB0ImGTgAFBomdgws/P4eKmcKlWdk7xh/0I09ICDAMkxLEUDBjoJzxHIaP8hCSQOwkQhIoApJuG5ImYLFxYjIG5NIxq4TjTvR24QgsAkBawyTuenwSiwy/wlXuxejYShIrC4W4QdAUY352AQvXFxFRBAaDDOWx4RLTU+hquEPMSJ9kASFEHMMkQHu+i6SdgskNpw6Wj6iarEI2tJvAENQjhZlLF9BdnAMbOyGYnNk5eN/vhFQPL86c6+D8X0UE0glmr16FJEk2QH24VEr/mTdWp5YdCmC/ifoX25pNdsI8E0NRhIVrS7hy8SqUVmCjLLipmBss4cdKbq4WBoBtEYPd973ZCTFirkO3BTMXr2FxbgmxqsEYcUO+qXqjOi7AkIH4sZvGoMaEa69fwtWL50FJDzUikO+ALpYUC0nBIOVrTdPsV7eWVfc3PweRfFwoQaDEoEYAuks49+JpmKSLiChIpZTltbi7LhIr6EYQ3nQAD+5rJe6GKRCUENjEeOWFc+gtCJSpgyRyN4uyPOmcuBKQkS3xfVfewoGWEQIbRh1NLMy0cf7MJaQdgziuB5Pmw88NJVERwCwWwBEB6HZw5rvfQTJ/FWMMsNFgceSPlAWKA7DhNQF4eBO2fI8rAOwmkhMEbDRiMahJgvnXL+ClZ59BDIGCJfZ4hQQeCYhBMiMAbwGACcsFBMjRqUYAEoWxeBwvnDqD8y9eRl03UZMxUBqBRAHC7gY6v5nIPSRL9MiAFPx/3f8cSHwqY/gvGxzvNB2JAqURGhiHWWScff48Lp29glZtEtA208xb0RSY2xL4AARPelGWIxwRELPg2ScfxfnT30WcdjDGAqUTKJi8CiAj/SgjxmyCRJ5bPswjSxgp/N+vR25B+OTO/OE/Iz8HIg0yGiwGnCZosQHmr+N7Tz6G1195Ca245sbJmgLPUaX5Q5dp97HvuxbAPkVwAICDuxHpGKat8MRXn8bipRQN3UJkaiDtJS7njDOxNcGRx1HJaevw/+t5YMXnyMw5MhFIMyJdwzj24MLzM/juk2fQnktRVw2QBpgC8DuWWsL1cUO+RBQE7Cb1GYhO0arHmLvwKr75lb/CtbMvYioGYtMDS2qJICOFoWEEgbD1lf130ZAPDPg/ZaNAqfhcnLuTvSdkmwUKBpFJ0GKNRtrB2e8+jSe+8leoJW3EZM+dZWX/twBgHgF421jogmFKLo5rCMIKzXgcr3z3NTzyV0/h3T9yP8YP7sFCOgvNXUAZGDLZnSZit+llU8IoVLYlvDnq47tkBYUShjEEpeuYqu3DpdPX8diXv4VLr8ygVZsCaZWZzwTtrj4UavkVZMUKyAs6jAGUTjE1VsN3vvEPaExM4uGPNbH/yElc7XSQqBiaGZoYBBtb97HzQncxkWITgQE/Ufk3CRoPUOAW5ZqXgyuxglWDtQZJDw3S2KMILz/zFP76T/8YM6+9jH1jDVCagP09LCX0DHtvRse2ABjo76QoIK3QivfimUefQ6fXwbs+8DYcvvUQulhAO10AOIGQznJnSbhv0PXmhlTcFhUGG3Y/Y0xE46jJOM586xy+/sVv4uJL11CnCSiJS+NDuG8jmtKm5L7Nao3SMRIIA9/6yl+hPT+PD37sp3DsrrdgXhvMJyl6rEDE0ASwuNolETBRIB6qBClnZ+KtAy9wsqQbKGsomRRGBEosoywEGFBWIcXsvluASAQxNKbqClGvi1Nf+zt8+fOfwaXT38PeRg1sUgQpZaNj92ngvH2st0hJFCLNGFNTOP3UWVy5OIM3P3gH3nT/7dhz+BCMSiFIAbahhM3SvssC2JvNwiCJwJox88osnn70W/jeUy+hc82gblpQVLMaUQhgypk7CESstjQwMGTj4P2ahTJBF4lA6wRjHEGZBKcffwSXzp3HA+/9AO579w/g0ImbkDAAMdDEMMQwEGulOAHCzAOob0cIEVx4hvNSTmL7zFkcXkiyGKvRXVGG8QB2ZjRDEIFgOh28duq7eOwrf43vPf4NJNeuYDImKGNNfybjLBMeaseMcL5jABwGcDUIBGWsEWYARLqGFk1i8WIHT/7Nd3D6Wy/j0IkDOHbLEUzumUAU2/REskl5m6t5g6iM72QlmtDrpJidmcPZF85h5tJ1zL++BEoVGjIORgRoZGSXL9P3niozXOokoMJc58AuYV/M79QbGQGbFHVWYBEsXTiDv/+z/wenHvkqjtxyC07eeTem9+6DajQAUlmgefnyzFwDi5icECzkrcOFg6wwUUHijHhzPTDTjU6QdDq49OpZnH3hOVw88yIWrl2GShNMKAGLI7VgMh7Ef7f9fzGlstwzzJPRIzBvA4DzjRGmDLqYJxQAFz4RgLkOlgjpYoLrix3MXnoVL586D4oZxBZVRNrdSROwGrThALYghDs/G6IRTdCpRtIWUEJQaEEJg8WaspnG9nxXAKQs7ESlYoWKoI9/D3kBIilYGBEZ9NqzuHpmHrOvvYTT33wUURxDSEGIXSzZsz2eNMvNYxI48cf2fI2Bgcn8bxcmcBfvqHPRff5qWUOSMRCtobtLSDtL4LSLMSLExGARoATe4pX31yCFAA5nKo0AvO0amIvPyUOErIlpACZGTBGUxNCdFElHw0gCKdEu4tLxuFDSUvp/ZsJiuNxbkTzmI+JMUs96awAKTATFdSgoMKn84wVZA7vQQCwmg8rAVSF3jgUfOevmIc6sBpgZSlKYnkavu4jE5A0CTABgC1zjVo2zqRDGnau45BDJZiVwBhIBrNBy6zDIbQmCQAAEEREaTIgUQYlAJLFnVgCfu+cu/EXoL2ggt6BCOcVGI/huD4CLkjtkM3NmmuBCRJInIiiJoCiGqHI35aC2lgKmeMNsZ5UJFyHjNKtkqY6+tQ1EYFxMlwKm3BvIVCU0iAY6FlVsQQZsl9UkLp0yskltqJdi7uIb5LmEB5vVxlk8usg0m6LQqXjNIP63v6lGUE0lBvDlggirmv29N07AMESoBO4SgGGCd48AvMUAFvT35S9rYirKV286iveNAGgqvcd+LvtmeBvu/ObnyaQgwXYl5xzn3i1l9bkbWV2Tp0oUx87kpXge1OHWDmEfajuzDBsN9M+lGv6uMqpKDVzeMgmIlAtBBffeh+PgK7IGNcamSjtmdGwZgM0AH4dQbkATpsOKb3oGDhL4Cfl2zT9XhuIyV2nmk+/M5BJJyteUDagOv5uX3/Gr3INcXjviXBS6MJFxPjZDAt+ybKYvNyyub3Lvqu5s+Onh80wYZ45saQ6F+AQW7SrTHGtPw9gmo2MbfeBhYwZSzJuj0qbM4k+bdX8D2rMgXYIN2Of/Ub8SEbj0xuCTh2ZiKNDFeUdKT4ZlWn2eMcMAACAASURBVNcnahBXvBcr/A5Ya5lelU3VLwgDIVEoZJYc5q7DCGjUlXIHAphWvB15ja9k/hv5OKXfYOQ9Kf/a3FfbnBvNqJ5aJJY1Fzj/DSAqxkarAGwcUccDNU0VnLjEyEpGPAkHEx7Wbbbzmu6qWuZ5/+eaIJNNADbuCrkgiE2w6mqEuZ0AYB6wPSvMOAn6YfkYaNaexmSss9diYQeb9W7hcsxUshawUpimIE4Vlj1vIarO0Q0KFTJPlaphm2tZKroS/rtcgUEefnNabIcV9Vdr0bydbrlJQ9V/R9p3RwBYipMHM6fIoMhzKoSZQbaszhYBWGaXLCtMpuAvUyHRYmOPovdZdmB15tOxA68hqu6m6ACsRK1gpTq2VchWYaF4beT9fXIaP4PKztNTkrMHfQCW7Nxpg2yBYcXJSCSsfW3XNT7U+8Fmm7djNcmz5W19dkEh7Ih2utFILJIVvaVw7ABnJi3nuol8MCVoBk95Q/X1hm/KZihTYMyRKr1O9WV+0TC7eoUXkPtcqTApRQgQ4+p0ydkwlK1VeA3eHdiMIo/QRy10+yrd4irHKato2uRRqllHU/j4Mxespu2eAFLIzBMfPSgX+OwIAIc9rVbybvLX+phgZnE7LWhvfn9F92ZcbhU0ywsvblj3ahuRVyfnUyYTqjjh7LvJVvwI0ZCfu/EGgAzalMEJ9AkTFNMi1wvg5YSTBE6J+Ko1oi0vgBn+fgi2gn+P1guFoklKfVa5CXOtSt0h2H0WC+edpDN/yvvbCOKzVV0MTel5sTJq+ffYtrdhZia5GDX6JOgyntgQA71pgIWQ5Ua7quKAxsrVY9C+djO0DA+iIAutbgdc0wZ1Ei137SiDmYKbZHPvdR4VdLlh5FoqbBpwK4swXEUacY6A7B5tPpexCeWERe2c/0UKWpmyIWgAiQWtIZO1p81a+2c7SVDc0eGWKQMtJNRQ8RoJYOJn+FAwoM3YzpPub4NA00e+rVIL5cUQyHKlAcCIhLUhW9qTUpZ5TqXzDq2LjTASl6+y8kUkZMsdEZo2eb2zQdkTojxu7z4ki4tQxQUW6r3z14R9y/39srdJ5+TkNrTI3dhiBgmS8HxQ36UFSihBIWD/dzJQPi2fbD1tnvRhF56yZniSdbbM+kxBctAEYzv9+wzy8Ixx+jXr/OHPzZ278UD3DeWIh7NDqEDKVkpuFPdT/rZSwb331Ykp8/eEttfHK3bJzEsUC0Be9xaiohjOhgBI5mMTCYgZYWKnd859cQqEg+kfztryNcqOV7GdYLjfbMh4l1I+WiCkmPLXSMbgSH4vqfiXHQrgAT5wIUZiCpvUv49IQ5EBJEFqUhht3HgSC3ZTNkMzPFMWKzW57gwCVwFMnZRmEIwY5BFnyjApEs7ldb2xmBBFdZBS0AYwPoYtAzSEVBggVPSVygAWKtkLEmxFP7VQBEmSQGu9om+4XrKbhiBliAhKKURRVDifjSTUysm5mVksnrCyKafaAFoAMOeaEICUXDgJLC2bpsr5DvEpvMbvh6AsFGTNc+/Y+Hpmn6NOeVtd+ya7v5SfxiGShdXUEB7zejmODYgDS8lRKjoK1jQW260BPYj0kKY9MDqo1QxULd/NquRTeZAx8jG8ebePDNMFM8f3oDJipaVxnoj2I4kobzruTV/tnhsNpEkMgzpY1cGuUaq4rmsUjFERl2FWJOxKQgdBFWLFRi0IfbLjSpPElukppRDHMYg5mCVM60JvmKma519X76DsO5GPh+10OgCAOI6hWMEY4/y/9euaUNBn91EIQgxNCsYopKIgHCGlGKIi+AlUZbqgwH9kvcNcZxIyfeCkAMC525RHCojy+c3WA7SVVEy2oYESDTI9sEkRiYFSxtZak1TkG5R8aoT+9JYB2JnLFLYP9a1HBaHSJRgwpSBKYMwSmNoYn45w9FALN98UY//+OhpjNQCp46rycIkfa0LBiorLXgq1W7iBfHpiX4mdBGSQ+2wWW6ucGmCpneLKlS7OvJziwsU2ut0ORJpgqsMgtvLUhweEiqmUPtU/BLBYwSUDhnxJMLrPAHa2kAjGJyZw5NhR3HrLrdi7dy8ajUZJO5T9NQz+HRWtBOEVooGl94gItDFoLy3h8qVLePHFF3H58mWkaWqbNLhKLbMB5n1GN7r0VVs2yTBQSCSGjppI4yYm9hwEjU0hMYROajJtSmQBldtlRZfNG7pZI4UKUOXRgVweZ3OtJc/kI9fIIFJAK2Kw7mFp7jK6C7MwuoNIuoiEALKthhB0f6kixcSN3VmLQxINJqRkMPdIUqAhC6aU6zFsQaLBbMC8BK3n0Boj3HvvJB5+/0k8+LZbcPTIBKYmY0Q1lY8lBNbQiUOGNAxDo8X5Qa5Oudc1uDrbxbnX5vHYYy/ii198GadfnEOa1KB4HEZqtkWscBaJDFMpKdx8XshUxChzvzc3PZMkQaPRwH333Ycf/fCH8O7v/36cOHEC9XodO+WYvXYdL774Ir70pS/hS1/8Is689BJSY6CiKOu1PSyIq+9WXnklRNDCSKHQ4yZ0bRpTh29Gffog0JhE1JhA1zBUIkgJli+QvPCk3NPWh7wGyb0K6ZqZTwXWObBK7JQNQSNSIN1FvTOPZHEGSzOvoT1zHnG6hIYQQIkjbE0/YUeBQpKSFTvk/h8AYL3MZVKJT+8X+0Y0FBEgKZTqodudx/GjhH/2E3fiox/5Phw+RhD9OtLkZaTJAnpdnZm+Ra2+mWyr1+4OkCrGvukmDh3Ygwfe+hb88D+5C3/4X76Kv/iLq7h6bQEctQDUs7xpiLITGOE2EFmz3Zt/TMhNr7KmEU/GAEvtNo4dP45PfOIT+PhP/zSm90wXRanTzOHc4K2Ke2bahwhTe6bxtgcfwNsefAAf+/Efx3/49/8en//859Fut9FsNmG0zn3EFWK7gqoUB2MZZjAMYiSk0KEGouljOHDyHpjmPsyZGpZMBL3I0Gz7hIlrFiHLCREZrKaW5YuluAb5vCzrobMRSMeAhTAWNdDauxeT00dRnzqLmZe/AySzGINASLuiFeMEVZjgI643Nwe4WheA1w8NO8YrRRx10enM4vbbBP/yF9+Hhx86gojPoTN3FszzIOohUhoUe9+jOvtoY0JcxfrlvBLIbgIRhjGMtNtAqqdw4vhJ/Pqvfgg3HX8Kf/ipUzh7bg6N5iRS3XRzgga7pLQca+R+rZhxbXYW991/P371V34FH/yhH4QYgU5SgPOuk2GsGLJSuGVjjyzzSyzx4+/Hbbffhn/92/8TTt5yM37v934PiwuLaLVakDRdl5/uBVsKQo+baBy4GVM3vRmLPIXZXh0JNaCjOkzEeeSAgi7WJGDiPEoR/LRulhRDRBld5mIREoy/DfwvcZaBvzTOykwFxFbkpKLRTjsYE8H0/ptxtNnE6997HOhew5gncdBvJq/3TkbV208to4HDagPXeSGMZ0JAlII5QS+dxeGDgl/5pYfxnvdMQdHzMOYiongRRB0QpQUnjcpjRzdwnxYJDO97CITzDDHFDCBFRCmM7kGpNv7pP/0+tLtL+E+fOo0rV5ZQa0TQOnbdOriP9OEgphtKb39orVGv13FlZgZ33nUXfvmXfhkPfeDh7CQ5UivGRrcKwH19PRygtdaYmJzEz/z0z0AR43d+53fQ6/VQC1jqUAiXz7kv8VZsIoQwI0GEJVNDfd8xTN70fZiPpnBdN5DWW9ASQYOt1s1aDQV61FlBPkYb/vSTMiqi2oHlGGy6ipf6dASTvYZsopJEdi9FEcRE0MKYGjuIw3fcjwvfexKsZ1HPGkZoFLuhkbPYzJAuYD93ULHVlzMsBk/LI+f3ghIwdQAR/ORPvhlvf/s0arVzEDkLpa6BaRFEXRCldt4OaVuN4yqVNuMhZCx76B5w32f7Y2kIawAJCF0oWkCkrsLoMxgfO4+PfPjN+MEP3AbmLoxpg0m7KipTmLZYXrlyKaOIIIoitNttjI2N4ROf+AQeeuh9iOMYxpgM7OGjDNytjAWLC7GJI6v89zMzjNaY3jONH/rhH8aHP/RhzM3NQSnVN+Wx8jr61srNaWKFTgrUpg5g/Mht6NT3YN6Moacm0KU6UoogSrkuJv68uDBLauADQzwKr+fqz8jmeOVzsAwRUrLCp8cNdHgCC9KEmTiEySO3IEENKex5h0lJ2ewpChit9QN4CF3mi7dLZFNWbguNJF3A3XdFePj9t6PZugKRSyC1CELXtY+VfDZOGEqlrXt4v5tDn5WMEywdKF5Er/cKjhzVeO97T+D221votNuI2CZ7hFMVsQK4Qh9taWkJ73rXu/D9P/ADaI63YIwBM2ckYBZr2uYqJW9RcEkohfHqkydP4qM/8TEcPXIES0tLiKKor+iizy92LIvLu4MhaxL3NAH1CYztPQ5q7cN8GqNLY9bf9Wdhgj5qheIUWv7nSg+fk1/KY8iUVRXIJYxNOvINERKK0aUGFk0D44dvho5b0IigYd01BF3FVQbCtWVvrR3AWRArbAjjtZuGTg3e8547cOJEBEVXQJgDUWI1HZmB5yqbuBnDSXhZuMcEpHo4UQwazD2IzIJpBnfdPYn73nrcbb0kCyeR0FBjUf1G1tpW0Lz/4Ydx8pab+81iT5KIcQ/ZVgBTwJyXQWlEEMUR7r77bjz49n+Ebrdb9J1XZCXyKYlEhEQDiJtQrT1I4wm0pYaEYhjy3UQ5yFelbNDbxm0QlHImJeeUKrNggoaHrkeYEFsQcw1tqSNRLYzvP4qEajBgq7klTzVZb9Ilr+/WBpyu78ZPBkRdjI8D977lOBr1JRDNZZo3E4wCK02LLkwWTdpUIA/6hYQSV0CUgLkLrWexd5px5x17sGcKSJKOTbBwCkGC3O5CjLfA5towSS9JsH//frzlrfdivNXqI+0ELnNljd0wq0ewbwrDlZ3exMQEHnjwQSjlkzuW99NzzU75REoIwApUbyGNxtCRGIZqMFBZqK8arLRJkp4dID04V9qYoYltk096XEcXNUzuOwztZjv6TqdiGGLWb2ZtUPGGZEkOQgIxXezfBxw+1ASwAEIbREnQf7IIFikJvq0Y9F3WyFQGsNswTBqil1CrpTh0KMb0lAUhuZsr1K9xqitrLIh7SYLjJ05g//79/ZU2QH8TuFWCWDbJ+i6bwmGub71exy233IKa8+XD2uVBs4E5VANkCziIGWMT00DcRDcFhJzfiFLmX5jmRrJ5GyMbLbnSxiw2RQQBmhQ0MYRrQFSHIQUjYf9zGjYqvRVhJH9zXR6yMRhvAWNjCmJ6INZu9pGUFkqCXlAoF5dsmZnYd07BHwgCbRJEKkVzjFGrA8b0zwdcbpxm/pxhjMH09DTiKBrILq/HbN6O/lNxHGNychLMwTSL1QCLADEEYUZ9rAUTN2CMY3uZBphK2NwrLW+Mqo1JJcESANSmedoxsd1EQ1gFpK9kiRzrPf9oo686c48ZYBXOei9JnHxIbxHAtI3tW/LqgjCSD4FlyZUSqIoIWzleXa017cwiEYFSKkvkGKTt1uu3bumyESFSkb1GYdiBWKbUEncw4WFdEVsRLXDTGAfmVxfLQTf9ammYjUmB+Zj/xhBDg6AN7HQSyt0z38FzhwG4fE4mmy87rETeWX2XKDN9Ldtl+gTvagG307pNbp7mGmZeVQ7gvNjAj0alZTw82sbrGuYFeX9sQ7a3twRDAzbSToo2/aoz/1B28Y7c3L5Gb9hjQM7EjbTSm+3S8JZcBI02/+gYHbsWwKNjdIyOEYBHx+gYHSMAj47RMQLw6Bgdm3ZIoURkdIwAPDp21UFb2qp9BODRMTpGAB4BeHSMjtExAvDoGB0jAI+O0bF9x4jEGgF4dIwAPALwaCONju04RiTWCMCjY3SMAPyG1wT5RMqwFnt0jOyhNxqAJe/3FPbC2slbJajPZjdBcFAzvhDco222eYb1YCBvWSewdQie1Z2bwfLzUbYcwIX/CqE02m9HydsMkEGjhaz7yQjAOxLAtFPNo2zUJq9yD8pQZF60VYtv58FQ0OFvMHjC0UtC29AiBigM9zXkJgNKteVA8L1peUS/rEGuC63ixQMG7slOXHffR0uGvsjsjRxOP9kJAK7670oAzloAbxOAvWbNh1AMArD09/caHUNvi+FnGtJAAO9I+eRO19Aq8QuxvcVc/6zl3rslAF5NS51Coz7a3ltjRyC73sWQimGMoVbY4mZrNyiAB++U3baeOfCEVtt/vjzCd5t94NW01CmwvdvsUxZM6QC5+Xgbg3xQJu9wMmWXYFqGafW8G8IBVOiHRbSazVweX7RNGjibZ7scgKUMdmx+f+gh2wqXZiVmdpAEIyex7MS70bGaG2JnNguW3+uCqg6QO9a8yJ6aVWli2Zr5wFKtPeHH1sjya58JU84uksJZU5t1a0rjUZfTBtYUMm5QQz4WUsIm8NmFDWfQ2JDaDQxH6R8VO8xmp2AawuDbIsE6m35PZoeuB1yL2WEB7OderkSLRusCbzZKwmQyg0jyKYXhpIFgJMZK0xA2/V4soyjDwd0kgHEDzMhtygJLvqomqPkQc6Ibk6te+4B2N59P3NhQWUb/ZMxsoKZDtAvtCCCHI278mJlwKszKJBYNhQNeN4ClPOdFMlO4MB93UFyLYDMlWLZu4SsGCEk4obDs9oo37UxJaZeHby4vU+20gupNf2NoXVr3bbFD/qh4U8oALiiPsOn+DgnECzJXIJshJQBLOF5Ilv0AFoIyvCIfsEEkVvXcGlrOJ9hlLpoE9j+NXNwd5j/vvBtSILAQaoONPdZoQpv8FDNJSBBw7s8aQLTTXhyaVytpRsIqbI01rq6sYqpdkIbFDLDjmQNNbQJpSMh56KJXXNTWN5oPnA0oX/N+AoRMZomJ/dAByAh9MQ7MpR2C5WCYYWHUDIkdKRr6aYPgP+Qe5bVLvdJ0bD/r1Q0wtudJELIT60jyaY0rkktbMVu05LqWrbYMZuTmqFMMEQWjUZh/JhXmcPWIT/uFfuRmwW3bwWa0P99lB3ZX/p1WfB8KDpaX+ibTVsak/XuhzF9IIPixM/xfuDG77OZGkxGQaDsQ3g/1EwwH4M0JI3E/ASX5cyYgSexDoACKnKTUy5/QqjTjRm7SgLhyTKEba2YfpJBqoNvV0BpgDt0EcTinoaQiM6PdbkNrfcNoX2MM2u02jDFgtvHwMgey0o73/qFJU0AnICNQ7BRBpWZ1G47KCTTbzFoFhgAbA8WCOLJ7X9xGE7fpaCUtPDwS16HCQm0mAgGBuYar14Drcz2Ax2AktpPW3bjJgUJ5mydbSRiOsDYcjCgwN5DqCNeuaywsAEqxe60jJcQz8FR5GZlmFkEURTh//jyWFheH1GTbrEzcYO+qzebPtdfr4dKlS0jTNDOlxc3AHQrEAjATCAbt+VnoTht1BcAYDE7akNJKb/O6BWYziYDFgEVDSYoaGyixBKZscIL/Okkskz/Ib2QCcwPXrwEvvjQDo1sAmoDE6Bs/vx1ScphSRvE+vYKRCEpNYHExwitn27h6FajFNRhjAGEY4WwO7iDwkVPrYgxqtRouXLiAMy+fQa/XG9pM3anmNQC0220888wz6Ha7DsB5zHwotSWOqTUp0u4CIt1BnTVIeuCBZiShmPm2zbZzEIwhARgGEaUg08Hi7BVEnIJhrEkN2pBh7hsA4HwBM5ZWCGKsyfmNR17E7Fwdgr2ANCEmgghltPrW77jlfew8hGRNZyMRRFpgtR/nzrXx9DOvotMBOBqDGLFDqYmLrsQAAHuARlGEpaUlfO1rX8PMzEz2t1Db7XR/2P/fn/uFCxfwyNcfgVKqtDeWszVzDSoQiBgwCaS3AOpeR2zaqCGBQur84rImporP2vYFAkHAZKAkQWTaiKWN2ZnzUNBgGLuGG3iqvG6xk0W6yA5nFqu14lqMxx6/jG9+6xK0PgLhfdCmDkEEEbYEV+kWSNU9Xun5Cq8R98jki2Og+pLE/GutRwZjIqRJA1F0DIuL03js8Yt45tRlxI0GtIlcaaQfXF5MYFjJRarVavjy334Zp555BjpN80D/toFXMEx+cWgpeH93YWEBX/nyl3H6uefQajVhjB5wLVKsBQ92sV1Dg5gB05nH0rUL4M51tDiFStuIJO0/3YKM2ESFUNWKpbDP8g1GJM5sTlCTLlrcARavIF26DiUaDG1VQ8DzDL7nw90TXj/+FWzCFwPEEGIIxWCexOUZ4NN//BRefjWC4BgE+2DMGASxM09tyVQIMgsisiBHDirJsnT8ZZVfQ/2v8SVZYkNc4geOl9febQIjBJEIIjFS0wLoAJhvwaOPXsd/+9JZzFwl1GrjMMaazSwCloEsS6UvKVpjYnwcL730Ej732c/h9OnTjvjZTh/Y938wK16DP09mRtLr4bFvfAOf/qNPwxgNFTEEOotJFK/Hd2Nh+8grQsBka6oj0Yilh97115FcPY9xWURL2ohNB5GkYDEliVyS1NiGh8AxbQYEDSVd1M0SxtFGM53D9XMvIErbiCUBiQGTuwasZEIP15NjQ4sZyG9CsuZnc6yGv/vaPE6c+DZ+7hNvwYkTd0DrOsRcA9MiICmExJ1oRQK3qGrJO/RrAqJDghYbwqU4hIvRCsOYGEZaMHov4sZtOPVsgv/7j07h29++irFmC8bUMmG1mhoxv/mNMVAAxlstfOELX8CBAwfwC5/8JA4fOZxpte0BMa1g+haZ9CRJ8OST38Qf/Mc/wPe++yz27duXkViDQyPB51NIQhkwEYwR1FlgurNYuvwK4uYk9uw5AUkNOjBIqY7EKQyIckI6yC/YNC3sXUUb2fdBL5Xlxqdg0YjQQ810MYEOmnoWs+eeR/faeUzEAtLGbTUqCaCV7gdtHYAzf8+xt8QTiNR1/L+ffhHdTopP/Mz9eNNd98Dol5Gkl0HogqkHYr1JvoyUWEoqmSXuhghDC4FRB6gFkf1Qtdvw5JNz+P3/8Pf4+jeugtUYCOMwQmDiNZu8RAStNRr1OhaXlvCHn/oU5ufn8Yu/9Eu46eRN2YY0xmyeXyxFSsDmeqPPly9bBF649Ho9fOORR/Fv/82/xdf+/u+xd+9eGGP6zrP43EcsTIUfyxCxRKiCQUMxlhYu4/qZp7EXKfZPn8BsmqDLTXS5Do0YYlLLQcCxvivkX5tAVIf0V38JihPwthg8EDTirEV2XAkBpEFaoKCh0ENNOpikDurpdcy99jzal17ERKQRmQQQbePCWaWG/XYiNYRxLFsHYBCBYMMsRtcRqf0gmsGffv4VnH7hAn7iY3fhoffdgYMHT0LREoA2DLpgEhgxmflF0l80VO4ystJrKEiZrX6NuylQiLgBQRNpt47XLwv+4i8fx2c+9xJeOZuAeBxEEzCioFg5hlXWLOA8iFtjY+gmCf7ks5/Fc889h5/9uZ/Fj/zoj2J8fDwPSW2iX5wn2w8vNs+cOYNP//Gn8Sd//Cd47dx5TE9P2fhtFgMeVtP3axomQGAQIUUrInQ6M7j8wlMYPzyHPUduQRcJEm4hMQo9LTDEMAJrvvqWTfZsIMbecHIkGYhLFVKSEWjko/5SSrYhl3jhQU2hyWvDXjEDNQZq6KKBDvT867h69jl0Zy+ixT1rOofNIFahXYc5NrEemEBQSLVA8TSieAnPnOrgzEun8GeffxFv/0fH8OZ7bsK+veNoNicQRwYiuuRrmVzagVx4whQk1PKvURmDaauknOkbFN2LAGkSYalDuHhhHs88/R089vg5nHk5RZISWE3AmBZElPWf12mmhUEPbQziKEIkgu888wx+49f/FT71qf+M9/zj9+Dee+/F4aNH0BpvIWIVFFU4xHGey1klpIbZG+FGLfci839P0xTz8/N46cwZPPHkE/iHf/gazr58FgRgYrwJiIEZ2hop6T0JogOQQoYSIUUDBlE6i/a576A9cw7j+46gNX0IHc2YbI5D1RuWc4FN/bOAYxcV8ak4ZeuLStZZ+ScV/pqLOe6nI3WK7tICYqSQzjxmr7yG9vXXEesuWtRDJClIbGGgQl7ib705LqRbrjU0vOEALkougpEatGEQKbBqYbGzhG89vYRTz76Iev0sJicJ4+MEpdwSBZvBflZwkzkgQxzzKFjmNVJqTRL8LqRAuj1gaRGYnzXoJgm0JhCNQ9CASAyi2LktTl7T2jVjWGKGAEBxHEOnKU59+9s49cwziGoxpvfsQbPZhGJ2YXa3NmTrRWk13aQGFPYEvfv6gO8BPDc3h/n5eWijIQIopaCYXaIFZaRWeQ8sz8UjuI9eIFktKCJQJBDSYEkRQaO31MVS9xpmL7wAjsdRa02Aa7EzQckSSUQQ5izWamu5nZYVp4sDs9tGTgKwC5UKDwh5HR3lHgZpEDFMmiJZXECvMwdleoglRdN0ocgmcQhSF+M2ed52ZiXQhvR+2xQNLGJjpOTJBaPcvRIQtSBSQy/R6CUJFhYSEKfB4pS0QIEgy12pLP0xSH1E6TVV3nC2jdz7rfAnwLHPoAaIIgA1y0iDM4G0Yg76KuN2YQwYsMDwv+t2unj9wsU8QO3AnjHWq+ALMoCWmQAKvdCgE6j/u/NrPSAVM5gpS5cUMSBezSAUKnmgVcUKLszirQ0msKSIYaBMighdaN1B2ptx5DPnZm4l37FaDVz0eX22pgWcd7m0cxUNWAhNJGAYm30FAbmYbxa2BMEEbiH7enDX8M6mXQZ86yqM600hsYzklb/suyyAIcZAYDWaUgJQavPXnclrfDzVSdSwzDj0Okm8FM0lZDhFARUaJ1TGZYnnWWVvgon4kBQXFnRlrbtyawhaJsmDiLJUxAiAcSGTMIfW/3/4/h+DN0SZ2OkzdJUVvMzsAC5ZHm/Y+d5nog0f2wwXwwKZMmsqN3pz19HGT0UIwgZiUngvSYxkrhMqtOd6ACyS+8Dem7Z7z2RClQAQk82yytRpnh9g84Y4i7AUDHLKbwQVDcvtA3BG1ATF+wRyjCFl/ZWNEQec8KSD2XGtzwAAIABJREFUigJC7sMUKsXyDZzfslw10gCk5DfYfyZllSKSna04gooy9T68n1LBoK3CKArdhkJnixILLUQDhcGwQqNsDdAAPRmGUXwbIH9OsDpllUQMFb+VqgSfydbb9+Nm5N9njA3kwCUOkVNdArYNF8AQLP/TfuPKrxVmd4om+3wmBki77/dr48BdQVTRCl64KVEaq6W2NpnEcqrQOF+DAZbceSe3NOIluTgG29/foAdVrompkIBT+F1ZW1Mx7CjZf9iylLBdNoQIwpRtjCyxA6vpUR2EH7A6AIcALWuvMGWRPMvvkkekCnlSsEaXTdujkoUSdjaiiujCYItjNQCuOGmSYKubLJdAsoVnVwcjOZXkrRNvdmf2xDA/MdxrxQTt9oK/+UKWrJ6neK+lAN/BvLOgWuvSkNbcJgO4GP+joKujN72s78qlzUt9WnTg82Fe0yfZuLAnBaGGq+ghMnSHTCrdgY0J/1SHk3Jrw5CtgQ/vefg7wnCWAxV8j5XP3eeLb0zxWPHa/LWy9N9MCu6dCc6fA2FAJQaa+hhprPga6+GGNmSVDq3iGiS7O8V6fskGwFBAZTFC4VWy5raNxEKpX6P3A8R2XSByZg85HwIKW3VYwOb5qEK0fL//oTtkSilHZHMS7MvnFAI307i02vPmwPQ3Q523CeyVjb17nOd8rNAjnweRHJU6jyqFxXI/eZUtgzMAi9hGFoGgAFnjXPq4aO8CqKIOLySTbLUPPGhJvCZGqGlpi4AbNjggt7nDJmM0OOzSV200AO6Fbvqbe11Vyl6qDIGhLCRZtdDZkg7YNOz5I8jw2r6qJO/iFO+D9FsPBfaGgvCVt/goL3jYjsbuVVKZl/lrFYSkaExvHIBDrqmQWKDW8NrSaJUCeUWrZoXXo5GBtfbSLvdf2tROEJsmnjeroHDV3a2JSlZdvh+44h0CVcwaDAEcxvW2zwfGQNteSIrSp+p3WaB9ffK1euZSVUcH6vd9BTnrGcYICw62rAhaoNjmaKNbGNM2vHMLd07lGed+p3fL1IZcTdGfLbL/K63aSt1YZRmepchw7FRBWnbQq4ozSq/ZvIlDPPAbSpwb+iKmsuqxc2sjb0dHtmxmS9dUgmYCG7cPKydo0fp27xY7C3n3xmyAdlZe6VnRfL7ncKXNQ2Cmb2haaOgEhfkBUZT3OvIzaAn9xekr7yApXe9oGPjq71/VPtisNc0azwXhqr6HrNR1pFq+9PURoaJBtyPiwPmkgzxBImx2JoF7EPZY9vmpeb4yVXqdazESpZSqJoEmJVHu7/6k8rxjCfM0iTC4NG4IIzWMpo1w6ZZV+npElcez5H0Tpe9vQgS4sjwaYKbKmvYL98VoOfh+CjpMOvfXCXR2+zcszsj3Eg/hxIRZctsC4H6DgeHLt2z3Aiqkz2UxuKCDQ947y6CYtYuKyy0X6A96jRRi0j4lk12hAijv8sV+0RGENQpOdHk+8JAAxmiC8FoAnQHJSB6eNFLo6U3B/Kmqz1szQ+D6VRf3KGVthSUEOvnMNbGZWz605KIfPCRqhqmQ3zQAF3NTOb8BPoVxxcKArRk5V2iw7iajk889LmkDonJDAF77hhgdwV4ZnInmrTYUSEBfGUR5R0tINgUQKGbxWWJ0hYy9zOetUOO+us4NKyDoIJHE7gEtfrqEFKxJbyNn2Yar8G2HYcA3XQNL4Eza6g3XRUsE0BqSJiDjV5SCtPFixszyWTBVSeqDNTCCLKKwO0UcxwBHSLPOTnmbHynE9QxWVQk0wujQmrdsmlrLh8HGhmGUASSFbVFjTMEvEVeCSEGtcaFAwnMs3iR3zz3DzOQKSHyTRvipm+yzkWzhAVmtb0iDVAxSDMMEzWILeSi35nKra3VZa4ThmhxFa4XlSoZgscOkzdthEcTaQCUpIp2iLoKxKEKN8vaiFExElb5i6mGI+0F0f0hYBefN9qYlxqC9tIQuM1gppFEEiRQ0fGsxCswm7mvMU1m+WAoZjbTv6ggkO9HPTelLDKKUEPUETWqgqeqI+0ZJFktLCyRX8LkSVHMZ6e8QKUFettXsyArwybWFJQIS0khSgyXdQZcN0hqgY8AoQuo4nPy+b86dX8dws6pCtH5pygJEImBjEKUpWlpjWinsrTUxpQj7xyfQjGIrDY1xpVkMEoKBdumWNKTMKsqrMKOKAy1ugg4UQoCGYCFNcXl+DotEuNLp4Fqvi45RoCiGkIJhbwpRZoqVh5pVAliK0aYRgJc3pT3I7MRZRpQS4q6gqWPsj6axp9HENDexrzWFMVX3hVF2nxCBhPsW2ogUpgRKpirCvVpq1pBzma5ndW6xiSM6e5TiensRs8k8rppFXE0XMJsuohMZcI2QKEFeDoH+irkNsN7WCGBaBjSUjZeAABEEDa1R7/YwTcDJZgu3T0/j+MQkWkZQF4O6isBicukW5Ob6fOmVLzWcDUiZ/s6zBClDk1DuFwkBKQRdEbSnp9GL6zh95TJenL+Oc0uLmE0NunEdvUhBU/EmDFqFkPDaSTO3dovmZQEiQ4gTwlhX4aBp4ebxI7hz6jiOtw6BFxLUJUKNbH/ucl84kZCv8J0Y8p5Y5Z5XtoTUBPW/1Ww3uX0kLl88JYPFVhdoRrhOi3hp9jxeuP4aXutewZxOwA2DRBk3zZIy5y1P5V0GuEMO6FzfcLMS02zBqzKSisWgZgzqS0s4GdVw/6FDuGfPXuxLNeL5JdS1BicpRFJXLO0YRYmy0RxE/f5rP8FVtgZW8lPzFDUPZkMEU4+RqBQn9u7HW/bvx5MXL+DpmRm8nvRAqKETMbRw5t+oAV52Bm5aa3rjGxe8JAAbQi0htDoRbuYDeOfRN+FNrRMYuyZoXBXEaQwkcFP/qESG9hfmFWolM3ua+t6TtzoqTwalwDTPfWhNCvujJtLI4ODYJG6Z2oN7pm7Gk1eex1Mzp3EFbWCMkGSEl1dSQwK4IuFvQwBcZmc9KWTjqZINd6obg/riIm4ea+D9N9+G26Iaxmdn0Wx30DSCmgiUkbwZOFnpa7U3l/PlgkoZr944YJdMyW5epuMCBb0IxY1LIoFOEiTUw/ziIqg1hvcdP4GpVguPnD+PV7sdaG44v4ZhqDjegcpVTTQislYLXmUEMIxaymgtMe6oH8FDNz2AE50J1M/2MNGJMJHGiLRC5GrHvY+a92EbsF8lzFUOEz+Ma3QorhuLyaw1kZyB9j3RyDPNAggzTDdFQgadJYOF2R4O76njvQfvw3RrCn/zyuO4ig5Qp4ImzgcBVncvqUqv3BIWOtc+BjEB9STBybiGD9x6O27TwNTMVUwkCRraQGkNBbZtsr1/aFyxv0+QMIRCf5XyTA2pSL0Z9NpSJ/9+H9WeR400IhAai0uYTRI8cOAARAO9187hXLcLaTaRQlBl2POIiV7H3rH3py6ERhu4Y+wY3n/4bTi5MInmZY09SRP1lBBrhjKUd+cESlp2UNQizGEP7wqXtDEV0SMVWt3FhCUVgBQiVqglQENizM/0QD2N+w/fDHOrxpdeeBQSCVJVNM+Wm6JLq6Cho3WhtULtiwiUAHFq0Gh38Pa77sJRYzAxv4ipbg9NbRCZXEuLa+xlAeAqJo1fJM59mKATQsFoldD3lZK5VAVg5N0svU/jOy4Y25uYNSEydgQGXb2GN49PYObAfsxcPI+01wPiyKd5rKhZTIV/PDoqaFExqEkEXkxxND6I+/ffgZv1Xoy93sO+bh3NRNkQpKN2KetKShWlLuuvBV7+tUGLWSGwISgyUIagVA08l8AgwZuOncBr+y/jidnTUEpgyD42chesAcBuyYwvNqaCEGQQagaoJQlu3bsPt9THsGdxCa1eiroWxEZyf9etgSrcAiqW7khlxD3wZ0pzcciZ1hhkRufizY9Xo6C9qd8OUSpowkC3O0jjOu6YnMLZ9iKenZ1DvTbhAvcUjjTM1qBPnpeq9WREahWFmrhYrya0TA23jh/BTWo/xq5qTCUx6joCay/OQz65GHCkoZIP13O2ZZUYhDeFoRwpO0kxdFfQvpLggYN346XZ8+gk85ZnYddha4XMsGFTKXlNFyKUN3/zLF3m+7rJ5J0O7ty/D3u1wXi3i0aSWvC6RnJZY7nAd6Ss+DaYvJ410CoNE88YYV8NQUHXAP+Q4HUIfkdZczbxz4PiBAVAifXRx9IUrW4HB5XCsbExNI0Ga2MTUSjYPhXJ9FTYoKMihipIeIcmYoa0e9gfT+PWiWPYp8dQnzVopjFiTVAerlSss83vwHrLXYYTN9JHSVI+n1MILIw4JTQ7CuOLEfYnYzjeOoh6qjJFRRXnKQPXZsMB7CcYm6AThC0GsDN2NJTW2FOPsS+KUe910Ug16iJ2Snle5dA/TpSM6/gXTvxbicOtCujk5rQ3Y3XmzhQHQ2dbgHwPYJNpfRKDWARxr4sJrXFsvIV9jTHobtemm0hYTSyV4SLKBXRm7Y+0b/HOsQhIA7FRmEIDk/9/e9cWI8lVnr//P9W3uezanlmvvfZ6ndg4sORCXlAMXm7BIFZYsUgEJK8hiROUJxRFREgggnhBVpQHIEG8hYc8hCghVhRIFBwUgQORjUNMhNc2ePF677eZ6elL1Tl/Hs45Vaeqq2d6prtndvH5pdHu3Hqqq/7v/PfvHzbQ6RHamUKiKWifpGC7FUFK/XqEeQ7XSYmmrmg8QsWnYyEoISQZ0B4qdIYKr7v9KFpa2W6yfFtmOWVDwXyht7xqAmd71wAe2Yvrp0IgIJ3h0PISbmk1kQwz232VZ5eD+loVwFPPhVH5BcMdxCMALreKi8uC+2Z4doRjiQCcZuiI4LZmCwcaDVDmieilzGOzFYAp1oTHPjV3njapgZX2QSxlCVQ3Q1MSKGObgQhS6mrzGxfKAN6W/WsGDj+qg6fBVSA/WpQwWprRNgornYNoZgylqdjgWQWwlAE8iemaIolV/7K2E4YgxmAhaaCdKChjwMbkY1hceOE1JZdZaXnR9lRyY0spvnJsQyUg+5qdbZpUYm9UE4SECmvg64NCAt6GkiaCdgtQuO42FsbBzjIWuA1OgUQYLKObHygY0Zt0I1M1qUs71iiqge8YbjRvhTUh0QxOAaVtsouEQME+6Hxktay2EwvP8mEQfAOH5B/km8lpC2qR/O7O2M+kgkqcZRzXnH8YXBOdUD49ZQ8hAxJTObQ8g/T8OEN+1qPgnPdaBA1WSFSS07n7rR6oOM+MnbUkYrKqzJbKZP/66HOmShKWHPe5gq1oUGaNQMh16bdchCHWvgMYbh8Mk7FD+MQltwCBOzv2Qudlqmgyt5tGYp6iSQNwnoSYkhs0ucMTZWz+ItBmz8YiI+xQtH1r0jZPeFoVkwlnv/04I0uYcw0We1VmlHd7TcnsEVL0myJQfs9tzzWpp/1XIp/4Kj43ful0GOOLj/8pT2gXW+eiTCPsV4O6hA6PeG271xga40pPcdxsD3QKN3VS+cCf4c7nuWneyGB2KX93g1sD1C8zIyoDnqPHPAe9mal+71seoqo/RPMZKIymY9oAO0qUSSxyKeSKAI4SJUoEcJQoexUaRBc6SpSbGsC103MRwFGi3DxxcARwlChRIoCjRNkXN5oigKNEiQCOAI4SJbrQUaJEiQCOEiVKBHCUKK8xSeItiLL/EqdCogWOEiUCeKdn5qTceTeZMYgGYR/UkLa5+bLvavEzAeCCRc+Rxpkqs/3NC1yBpbvWXPONHT1FA7uU1ERsTiRVvmDU0MTWb5+cN5HRbOh4bkQAS8APLTthJ5L9tXqyNYBH3w4VtIlUAfS27zOa8t0BeXIAe7ZR2QcAyxSvKgGn5jSS7OYWw9F6WkIy2QFcKxsTwgVFyF94PoPyOe/0mL9DxRYFCRc5uM3vxXq6ikWmcedi3Ii0W7WuY8OSgFi9ZKtlesbJbfUd9XxadX+z3iswEDElDrWQkn6aQUOeCsCeH5rqo+OQy7dM1C5Vf7xgtp7rUSqjf0dGAcyl3b5OqYhKHNAhOV/9XeII4B1Clx3jZB3xUg7tYCHAqOM9e/WhLRy4cVZZqHodMvqqfrPmlFecTPfGqMbWOiK4Chl3YdqC3ytxagYompd3VuGd9je7xBkdnDh267sBSbhXrfhdE/E5IzHODo1nTqOAvZK2iLxoZkdKHXv46NfqrPLocm4KyB2L8MBuYKD9AfDo2zUlq2PxGvAsl3xTqgEV5st4l/NOo7Rp0m8wZe/JU/EDfkuDXQ1bfip+uYae+CHE/YSTxL7jzGjdzsDcC5LZq49U/MVxAKYaABcM497xd19xC8zJ76im6a84meoN5jpZ4ff1bkRodGsfwT7oNJVzU35Zu4EEWwCClSviohQa3TosMEH8ssW+9SqXMcX4uO6xjK7BmeBRynzi30m4pGmMk1zQz1O4A75I+eSBAk2d8tldFho1e7RLJ6IUOkvjqjD7k6ENzxMf7/qt64ZQiV3Zbm8nyp04v5zNk3fzmEJGKVcqgN0ryZNp5mso9g23DBkARgDj8w4i24LMpwsNzfau7pQMPryGHMDi9AflNSpwnh3NIOWTTHqbSSoGrMb6C/yme2+9Akuc32z7RSLCXmZqZTTEzUtG4sBYdqFtbGZE5UvR7E7jwr1mAbQ/Tal6ynpPhNz3pBw2RCl7OTZOcatqnHJPSBBdtcTzTGJNeg3kKjSCmmVmRMEiNJoKBbwrJGz3IxQA5gY3NqNZxdHUSLhLkXZ7n0rlsihbpQiKIgvNHGh7EZ2Vv2Y3koBpGkhNB+DQXS5t/wyLcXmAzgAYRgwMiXWHqLrIM4x69lw/RiywdaWpBsAu9iWBIYIQw+Tpa4Yhdku43OoMf9KW7lNQnyKJFrgmeSUi8GsrjRFoWJ1hmIkqi/u98SOsXZfKpj4BSg7EUtnISRhjMmbsQoc6V7+YjGCIwZCCOZOVVXAiH87nLkMO+j285VQXAwNQEtzYutWjZJNYhhgZMbQDsrifNd59DmLjamL9xrERNyiMiWz8yIxUMqRGQ7NCRkCT5ucezzOq12RglMCwQBTlBg1i8jfkQ4SiAlLkjCZ9v7wjAI9Z3yugIiVOBFEKa8MB1gZ9pARoZhhh13YZnls0W39iB+6NhIZxNInuEg0MLQzDCqkAPSMYgKGZ3ULz0aL9aLk5tlROovWkCCkyXO5eQ9cMgJZCBp2X+W6cS5WRz6myXxrWQcOQDYaskSWCjA2MK1saKvJzpWZE2TkEeFogFNi2fdFCDMMJLqyvY8MIdLODoUqgfRKWCv87t4ru4k2YTZT5nZAli0zjXGzrxmkCdENhkwkXej1cHfSBRlI0gVBNOcH1itsymnO7I5DHinHWqK9TXM+66Lc0sjZhQCmEBeYGGgqpA3A15hUy0CxIE6DX0Dh7/SIGiYFmA4FxnX2BF12zH3jSjdMzmQcOd+oaEIxS2NAGZ7s99FtNbCYKQ7YxoxDBuMCmCmDZDwBX5w6kiI8NM1ImpK0G1pXCuX4f14ZDUCOBESm38vk1kmH8kzezRABv5W4KBEYE0mRcTjdwwayh29EYtAwGnFk39Aa5gzSmQ8xC04JTMzBIDDZbGdIlxouXTmPYMNDKgttvuRSnQ9W1x15b9gzAuRV2F6GZkbXaOHXpIi6QoNtuo9dIMCSGdvGjuFoYAheWpRIPyOw/8uRSXrYwrvTly16Sl8JSAjaTBJsLizibpnhlfR1p0oAB25qx61QRkZpww+0QpvH9vTGF5e8XwZCAWgqX9QZe2HgVF1UXw4MKG2qINHEAISks2L4cNKgdPPDHiyEgU0BfaXQbGXoHGafTyzjTu4Jhw8XD5JuC3PuQes920m76pPAYzVQnXNjRlBGQNpv46UYXz125gqWVVTTEgHQX0EDTAGKMzfySjLSqSaWrjubwQIoXFnfd/m8TDAMpEzYU0F3q4BwzfnTlKs50N2EWF6Bhs+11ihQmw/zZvNOSyGsJwNaFtk6jKEa/pfFi9yzuaq9g5dYHQANAraegRgNsBMoAJOwSozS2Z3ncc9/NUzA+6SmjXlwxZCHIFDBgg/Vmio1lg8uLA3zv9A+xlmRIE0BTMW3lk6C54m1hWU3FSNQCmIhdo8IO3dCwdRK2HGNIkCaMXquJZ86dxa1LC1ALLZuJ6w2wmGZoEqAMwFQks0jKCaYwyJ9fVku5mynQTNDEGDBhs8FYa7dwqdPGs5cv4/lrV9FvNGwo4Gt6NAk0I3AnexQEDQPuJLi4to5nL7+E1fYt+IXDh6FlAN3T6KSMpk6gRJynZkc9fRlQyMBQCOvyvwIBu8EZ2wbLeSpV8gPBJaVc377tl3ffc66hBRPnrnAGjZQFg4bGeivDxrLg0oEhnrl6Cqc2XkW6TDYHZGuSwUzM9hk638FFY5pakpLJpjCxJGN/yYxxCHN3SBipGHCriQs6w3+efhn67qN4w/IidKKQbfaxkGZIMgMl9u+We6srp6ZMpxzhY6z7nvccDBNSlWAtYXQXO7i60MJ/X7qC7104j4sAslYTml2LHMaV1KLs5hkZImgyNouyqHC6ewlPnnkG5p434f47D2FwcYCD/QY6faAhColhsOji/htnDWlrC8z5uKtYkDIgWsoj3FI/RijhuS12tlwTQyuDfpJhvZ1h44DgwmIPz228jG+ffQ7dBYO+EhjlXW2bsWahnUdVvtcgsMY5gJmJiCj/JhGNBXLp71Z79OGyzcIYiIAW2nil28O3XnoJa3ccxhtvW8XtzSY6wwG4N0BDBEpMMaUBKgX5oeuydYfqOGdqCwoOd9gYAMKEIRN0u43NdhvnROOZM2fwgytXcVUlyNptDEm5Ex5znXx8zSWznI4JETIYQAG0QPjx5gVsvvgdPHjncbz+jnugB0CyNoTqC5qa8+Yb39OeT5dJ+XAGKrmVKWIvb5H9YJ1mQpYYpEuM/hLwKq3h6Yun8P1Lp9BdMhi0bexrXFMP+4vYwcWICIwxOS5DPOYAbrfbqTOu7EE8zu/mCoyqvjW5ho4MhD4nkMVFXBgO8M0zZ/D8tWu4/7YV3L28hDvuOIRFJrA2IDHWha8codWxrq3+Rc3XjAhIDIQBdiPjvghnh8NtUi1LGOtZhlfW1nHx2hX877lXcUlrDDttpCpB6jSFxMbIcVx/tgD2XpiQQcYCNBi0zDi7uYZ//ul38dzyaTywegy333oAdyyuYpETcEpgLZafzSeHyM4Ws5TLVHlbL02HXgHbhgwITIOQMXClt4EL6XW8fPU8Tl35KS7IOrKDhEFDkCpfNhJAlLVuVCTiaIJ+byICM8NoDSJCI2mMAnho9EM/+J8fPLG0vPTunWbnqCadLc5SaRD6ALJmC61GAz8ZDPDqmVdwSyPBaqeNpgAqzaDgM7aUN4BT5Q3WeQdhjDDuc0v9Y+P8IoaxvpCAoQnImNGD4NJmD9d1hqyzgGGnjYwYmSAv10eZf8pXCMhga6mNDiNrCX7UP4MXfvwqbu/cgpXWAbREQWXWFfWNELZ6YEpPSjDZbO84vQ6H8EmsposDcKYArYB1vYlLm9exTgPoNmPQJAxJQyvjcEBB6WN6HWp32qMAPnny5ODnjt6jlVLQWhcnI/O2ZYBwnN+XUHKMMEFEQYtBnwjcamHYbKKnM1zo9cFGkDh4sHuT4gr7dW7PdllHQT3VCfkTNBgXIiEYsdlBzQTDCrrdQkZtaFbQZOvalv2EgJhPnk8MHFohct18DjapMjDEUB1AtQmns+s4O7gGZRhsGMqnnnwVhalEi2RcjZVzkBduNtfhSUZ/p6xgbtqOgEwDWjRMApgFhk6AjDUyuDZKaDdOSDZkZirGw3eoRUSETGu0ANx68NZRAAPAkbuO0LUrV9HtdqGSpNbqjcuvmjwr5Gpd3kkw9nMNgqEExILUGJBSICNgnw0U46w4Fb1l7kWJKAc2jWUpcrnEPGYnFLQlBU2afz+cN11YVg24LKGQAkRs00kY3BNiNXfOAM49q9w7ElcdMDAKSKEhDZtJZjEgY9Op7NhejBQgqc1W1n4upesQ4/SMaIQvzZ/9RcnRJj9tJ5W2jRxEuYU2ZIeQJB+TDNIvLNiuDUNqPm+227j76N31AL7nnnux0d3E4No1LDabMFlWcof9h6mJNTlAtJ2FNHlNKGezcNkow2SH4Vlg2E4v+SZvAudZKwkYcNjdOKbC2ht3QwX+RgXX5U5QDbEAJjsnZaTIlouf6fX1YOsygKjcE00RsXvlPRd9weTrw3ADJfkQmE3qiAD2rM3zEZqKLPMkYhAQGMKWNB3def46IVFUtSJiAjIWU0mOAoBCQYSYD7yQbOvHle+DG4Qw9uPw4cP4tQcfPFgL4Lc+9NDy2voaXjlzBgv+RBIpDVZXmwKlktiy2m8c3SwVbBZkyq/lup2MiB2VJEYx4FDUZ/zra/cljfK/En690tesybfp+To1lV4TIPczYQaumomfN3V4lKri+jE8yruWqOzCovCIQPZQhvOozA6elTi9oUCHpAJIHx7WeZ6ln6UqN1rAKOKZXkjq6jjjPRNvkIhgjEGr1cLa+vr/rR5a/UQtgO89du8Xer1ee6Hd/lVxcTCRLWpzAGIekwHO31SFA8q6vt6R9XzSlGeEcwaPmrNp2qnhkHdIwixJXvALmYbrXJfI8bxnrrQ/tCu1WKpxuX34kzdYuOSV7JAEwNaOy/zTHE4WVT1yqjD9jO0FoDz+rQ86w2SZ5C0kIfmdv0JmxmavhyNHjuC+++67euLEib+vVoQAAO//jfd/ZWXltu/fe+wY+v0+lFL5D4UqHvZpcm0Syab27foVKQrY7g3l/wJgppFkmNT8vd1+YOR1bDaRjHXjqa4dslRrixzPew1gIrKx7Bbxck6DZNzkl5vf2bFuVMJDuHwLmYKzqvx7liqHgkk0HgfgEeSMegAm9xr8OERYyZFiWk4E2pjn3/Qrv/x3VfNSkne8693PLh848IIxppRODztAtpoMyeNL9wGavPyyN8wKRZJMXBunbFFKiM7z3rnPO7moZ7HxAAAEh0lEQVTf5SkeGvGidq8dkutvMc/tPTfk64RsvkWm9A6LUVyErNhks1/GWd/+YIDVQ4fQaXe+86cf//hfbAngj370D//SEP7mvgdeh/WNDRDzSD+mcZnbLQHMCsIqIPDaXhiw9eC9ADDbKSTtWDXqEhw6AnjPZKf3uzxHSyAozGK4rig3snPjKwB2y/xEdhZv18b7Tt/Z/Y/ARcLMYw7AME2xurJ67j3vfe/LdZgZkccee6z35je/+ZoxZsue6ElOlxvXWaPCJRozVbTVBoAo83gio/dctoEBjcyMzuaApxH+sqKdi8gmXtUuWntGOdPG/JwIlFLo9no4duwYiPnLn/r0pz45EYAfffTRz/U3B3984sSJ3traGlSS5P2Y4clAN7li23PP1JYevDcgsCRrJkJ4rlL1vnyG2Exkt2e5zrXw0OoALBxUJdwInuwGwAYjs+QSDCsQEbTWSNMU73vf+waf+cynZdx9q5UvfumLX7m+vvbB48eP4/r162g2m3lZiURmxwRwQ6hOTFBF2aUfPKffV0rh8pUr+OCHPoTDh2//k7c89NAndwRgAMiy7F8U4d0/f//9uHT5MpIksa2VrrRkM83Y4Sk02dm6dzZ4OxeNcurY6Ejvn0td5Gw1DHwOhvMoEjOKgbcPAKu7vXahcT5254DUwE0bKaXAzDh77hw+/Du/jdXbD/3uocOH/3qc8m17CW9/OxKRtz3Ybra+9d2nnsLKygo44EEmsf2nAtl2+Lhwe0wQwu/j8RkSQ9eOqhhoqHzUW7lVZlH2JqlV1hKTx7kaDHEJH95fDdq17xZWdwDb2stKod/v4+rVa3jso3+EAwcPfHhhYeFrH/vYx3q7NUG5/Oajj77nwMFbvv7EE0+ABVheXgK5ESdjbELdg3drAMtu/vz8AJxfSn1nu5SYnWNDx354p1T5Srgj40Z8GmHit26CrgRAIhAzhlmG7vo6jhy5Cx/5/d9Ds9X80LFjx/7x5MmTg2l8yJJ84uOf+MDi0sJXn3zySTzz9NMQY7C0tJQ3fIQXKBLdzShRRsAaGDgRwWAwQH8wwMrqKo4fP44XXnrxtx5//HE8/PDDX51FEDgiT337qT/4/Oc/32kk6s8uXrh46PlTz2NtfR1ZlqGRJGgkCZRSOagpTgJEeY3H8uJiXK01jDHI0hTDNEUjSXDnXXfhwMGDl8+ePfeZRx55ZPi5xz/3hVlmccbKv33jGx/5+tf/9XX/9MTX0OksvGV1ZeWh8+fPY9DvYzgcYn1tzQ0qUK3TvB27RlyHHeVnIpZ3xBSLS0toNhpotdtot1o4evQoev3+D/uD4RNvO/HWF//8s5/90m4PiKnly3/15bf95PRLj333v76Hc+fPo9vttn7pF9/4gf5wCNF6ZIu6n/jxTelbAZhj2BnlZovfpUzl32w08PTTT//DQqfTWzm0ijsO34l3vvMdeOANr//ayZMn/3ZaCz8X+Y9vfvPfu70e+r2+pf7Mt5XvrLMrLrOPcrOCWAyQNBMsLyzhXQ//+rviXYkSJUqUKFGiRIkSZd/l/wG50e0tBt61cQAAAABJRU5ErkJggg==;verticalAlign=top;labelPosition=center;verticalLabelPosition=bottom;align=center;fontSize=25;fontStyle=1" parent="1" vertex="1">
                    <mxGeometry x="137.34" y="660" width="124.67" height="120" as="geometry"/>
                </mxCell>
                <mxCell id="AipzV-qaQUW9Grrzpa5T-50" value="http/8086" style="text;html=1;align=center;verticalAlign=middle;resizable=0;points=[];autosize=1;strokeColor=none;fontSize=16;fontFamily=Tahoma;fontColor=#000000;" parent="1" vertex="1">
                    <mxGeometry x="991.54" y="427" width="90" height="20" as="geometry"/>
                </mxCell>
                <mxCell id="AipzV-qaQUW9Grrzpa5T-51" value="http/9090" style="text;html=1;align=center;verticalAlign=middle;resizable=0;points=[];autosize=1;strokeColor=none;fontSize=16;fontFamily=Tahoma;fontColor=#000000;" parent="1" vertex="1">
                    <mxGeometry x="991.54" y="750" width="90" height="20" as="geometry"/>
                </mxCell>
                <mxCell id="AipzV-qaQUW9Grrzpa5T-52" value="http/3000" style="text;html=1;align=center;verticalAlign=middle;resizable=0;points=[];autosize=1;strokeColor=none;fontSize=16;fontFamily=Tahoma;fontColor=#000000;" parent="1" vertex="1">
                    <mxGeometry x="1271" y="558" width="90" height="20" as="geometry"/>
                </mxCell>
                <mxCell id="fZKHa0zx3kGTKkQRTJEY-2" value="" style="shape=image;verticalLabelPosition=bottom;labelBackgroundColor=#ffffff;verticalAlign=top;aspect=fixed;imageAspect=0;image=https://freshremote.work/media/company/logo/20/05/InfluxDB.png;" parent="1" vertex="1">
                    <mxGeometry x="866.23" y="420" width="120" height="120" as="geometry"/>
                </mxCell>
            </root>
        </mxGraphModel>
    </diagram>
</mxfile>